<?xml version="1.0" encoding="UTF-8"?>
<svg id="Layer_1" xmlns="http://www.w3.org/2000/svg" version="1.1" viewBox="0 0 593.9 207.3">
  <!-- Generator: Adobe Illustrator 29.8.4, SVG Export Plug-In . SVG Version: 2.1.1 Build 6)  -->
  <defs>
    <style>
      .st0 {
        fill: #fff;
      }

      .st0, .st1 {
        fill-rule: evenodd;
      }

      .st2 {
        fill: #f3ca22;
      }

      .st1, .st3 {
        fill: #fff;
      }

      .st4 {
        fill: rgba(255,255,255,0.75);
        font-family: NunitoSans-Regular, 'Nunito Sans';
        font-size: 20.1px;
      }
    </style>
  </defs>
  <g>
    <g>
      <path class="st0" d="M90.7,161.2s.1,0,.4.1c-.1-.2-.3-.3-.4-.5l9.3,2c13.2,1,37.2-2.4,48.9-35.8,0,0,16.4-50.1-38.3-87.9,0,0,57.3,15.6,55.6,65,0,0,4.3,44.9-43.2,63.8,4.3,3.3,39.1,28.6,62.7,21.4l1.1,3s-49.9,23.5-95.6-30.8l-.6-.4Z"/>
      <g>
        <path class="st2" d="M163.3,159c0-.6.6-1.2,1.7-2,1.9-1,3.5-2.7,4.8-5.2.5-.7,1-1,1.7-1s1.3.3,1.6,1c.4.7.6,1.2.6,1.5,1.6,2.1,3,3.5,4.1,4.1.8.3,1.2.6,1.4.8.1.2.2.5.2,1s-.4,1.2-1.1,1.6c-1.9.8-3.5,2.5-5,4.9-.6,1-1.2,1.5-1.8,1.5s-1.4-.4-2-1.3c-.8-1.4-1.4-2.4-2-3.1s-1.5-1.3-2.8-2c-.6-.4-1-.7-1.1-.9-.2-.2-.3-.5-.3-1Z"/>
        <path class="st1" d="M104.6,46.2l-.6-.4C58.3-8.5,8.4,15,8.4,15l1.1,3c23.6-7.2,58.4,18.2,62.7,21.5-47.5,19-43.2,63.9-43.2,63.9-1.7,49.4,55.6,65,55.6,65-54.7-37.8-38.3-88-38.3-88,11.7-33.4,35.7-36.8,48.9-35.8l9.3,2c-.1-.2-.3-.3-.4-.5.3,0,.4.1.4.1Z"/>
        <path class="st1" d="M90.7,161.2s.1,0,.4.1c-.1-.2-.3-.3-.4-.5l9.3,2c13.2,1,37.2-2.4,48.9-35.8,0,0,16.4-50.1-38.3-87.9,0,0,57.3,15.6,55.6,65,0,0,4.3,44.9-43.2,63.8,4.3,3.3,39.1,28.6,62.7,21.4l1.1,3s-49.9,23.5-95.6-30.8l-.6-.4Z"/>
      </g>
    </g>
    <g>
      <g>
        <path class="st2" d="M205.1,67.9c.5.5,1.1,1.3,1.7,2.2l3.2,5.2-3.3,1.7-4-6.5c-1.1-1.8-2.9-2.7-5.4-2.7s-5.9-.7-8.2-2.1c-2.3-1.4-4.1-3.4-5.4-6-1.2-2.6-1.9-5.7-1.9-9.2s.6-6.6,1.9-9.3c1.2-2.6,3-4.6,5.3-6,2.3-1.4,5.1-2.1,8.2-2.1s5.9.7,8.2,2.1c2.3,1.4,4.1,3.4,5.4,6s1.9,5.7,1.9,9.2-.8,7.6-2.5,10.4c-1.7,2.8-4,4.8-7,5.9.7.2,1.3.6,1.9,1.1ZM188.9,60.8c2,2.4,4.8,3.7,8.4,3.7s6.4-1.2,8.4-3.6c2-2.4,3-5.9,3-10.4s-1-7.9-3-10.3c-2-2.4-4.8-3.6-8.4-3.6s-6.4,1.2-8.4,3.6c-2,2.4-3,5.9-3,10.3s1,7.9,3,10.3Z"/>
        <path class="st2" d="M226.7,64.3c-2.3-2.3-3.4-5.7-3.4-10.2v-20.6h3.9v21c0,3.3.8,5.8,2.4,7.5,1.6,1.7,4,2.5,7.1,2.5s5.5-.8,7.1-2.5c1.6-1.7,2.4-4.2,2.4-7.5v-21h3.9v20.6c0,4.5-1.1,7.8-3.4,10.2-2.3,2.3-5.6,3.5-10,3.5s-7.8-1.2-10-3.5Z"/>
        <path class="st2" d="M287.6,67.4l-3.7-8.7h-17.7l-3.8,8.7h-4l14.9-33.9h3.4l14.9,33.9h-4ZM267.5,55.4h14.9l-7.5-17.4-7.5,17.4Z"/>
        <path class="st2" d="M300.2,67.4v-33.9h3.9v30.5h17v3.4h-20.9Z"/>
        <path class="st2" d="M329.8,67.4v-33.9h3.9v33.9h-3.9Z"/>
      </g>
      <g>
        <g>
          <path class="st3" d="M330.1,99c0,1.8-.2,3.8-.7,6-.5,2.2-1,3.3-1.4,3.3s-.5-.2-.5-.5,0-.3.1-.5c.9-2.5,1.4-5.1,1.4-8,0-4.4-1.3-8-4-10.7s-6.1-4-10.5-4-12,1.9-18.1,5.8c5.2,4.2,7.8,8.7,7.8,13.5s-1.6,7.6-4.9,10.5c-3.3,2.9-7.6,4.7-13,5.4,3.7,2.1,5.5,5.2,5.5,9.2s-.9,6.7-2.8,12.2c-1.2,3.6-1.8,6.4-1.8,8.5s.8,3.9,2.3,5.4,3.4,2.2,5.6,2.2,4.4-.7,6.4-2.2c.5-.3.8-.4,1-.4.3,0,.4.1.4.4,0,.6-1,1.3-3,2.1-2,.8-3.7,1.2-5.1,1.2-3.4,0-6.2-1.3-8.5-4-2.3-2.7-3.4-6-3.4-10s1.3-8,3.8-15.3c.6-1.9,1-3.5,1-4.8s-.7-3.1-2.1-4.2c-2.3.2-3.5.3-3.9.3-3.5,0-5.2-.4-5.2-1.3s.9-.8,2.6-.8,4.2.4,6.2,1.2c4.2-.7,7.6-2.6,10.3-5.8,2.7-3.2,4-7,4-11.4s-1.3-6.8-4-9.9l-.5-.7c-7.7,5.8-15,15.8-21.9,30.2-4.2,8.7-8,15-11.4,18.8-3.5,3.8-8.3,7.3-14.5,10.4-7.4,3.6-13.9,5.4-19.7,5.4s-8.6-1.1-11.8-3.2c-3.1-2.2-4.7-4.9-4.7-8.1s.5-3.3,1.6-4.6,2.4-2,3.9-2c2.1,0,3.2,1.2,3.2,3.6s-.4,2.2-1.1,3.1c-.7.8-1.6,1.3-2.7,1.3-1.8,0-2.7-1-2.6-2.9,0-.8,0-1.2-.2-1.2-.6,0-.8.9-.8,2.8,0,2.9,1.4,5.4,4.3,7.3,2.9,1.9,6.5,2.9,10.8,2.9,7.7,0,14.7-2.9,21-8.6,2.7-2.5,5.1-5.1,7-7.7,2.1-2.8,6.7-9.7,13.8-20.5,3.6-5.4,7.7-10.7,12.6-16.1,4.8-5.4,8.9-9.2,12.3-11.6-5.5-4.7-13.6-7-24.2-7s-27.8,5.4-38.8,16.1c-9,8.8-13.5,17.1-13.5,24.9s1.3,7.1,3.8,9.4,6,3.5,10.3,3.5c7.1,0,14.4-3.4,21.9-10.2,7.6-6.8,11.3-13.4,11.3-19.8s-2.6-7.7-7.9-7.7-10.9,2.9-16.9,8.8c-6,5.9-9,11.4-9,16.5s.4,2.4,1.3,3.3c.8.9,1.8,1.4,3,1.4s.9.2.9.5-.3.4-1,.4c-1.7,0-3.1-.8-4.3-2.3-1.2-1.5-1.8-3.4-1.8-5.6,0-5.5,3-10.8,9-16,6-5.2,12.2-7.8,18.5-7.8s9.1,2.8,9.1,8.4-3.9,13.7-11.6,20.7c-7.7,7-15.3,10.5-22.8,10.5s-8.8-1.5-11.8-4.4c-2.9-2.9-4.4-6.9-4.4-11.8,0-10,5.6-19.1,16.9-27.3,11.3-8.2,23.7-12.3,37.3-12.3s19.1,2.3,26.1,6.9c6.4-4,12.7-6,18.7-6s8.5,1.4,11.4,4.2c2.9,2.8,4.3,6.5,4.3,11.1Z"/>
          <path class="st3" d="M294.7,158.3c-3.4,0-6.3-1.4-8.6-4.1-2.3-2.7-3.5-6.1-3.5-10.1s1.3-8.1,3.8-15.3c.6-1.8.9-3.4.9-4.7s-.7-2.9-1.9-4.1c-2.3.2-3.5.3-3.8.3-3.7,0-5.4-.5-5.4-1.5s.9-1,2.8-1,4.2.4,6.3,1.2c4.1-.7,7.5-2.6,10.2-5.8,2.6-3.2,4-7,4-11.3s-1.3-6.7-4-9.8l-.4-.6c-7.6,5.8-14.9,15.9-21.7,30.1-4.1,8.7-8,15-11.4,18.8-3.4,3.8-8.4,7.4-14.6,10.4-7.4,3.6-14,5.4-19.8,5.4s-8.7-1.1-11.9-3.3c-3.2-2.2-4.8-5-4.8-8.2s.6-3.4,1.7-4.8c1.1-1.3,2.5-2,4-2,2.2,0,3.4,1.3,3.4,3.8s-.4,2.3-1.1,3.2c-.8.9-1.7,1.3-2.8,1.3s-1.7-.2-2.1-.7c-.5-.5-.7-1.3-.7-2.3,0-.9,0-1,0-1-.2,0-.6.4-.6,2.6s1.4,5.3,4.2,7.1c2.8,1.9,6.4,2.9,10.8,2.9,7.6,0,14.6-2.9,20.8-8.5,2.7-2.5,5.1-5.1,7-7.6,2.1-2.8,6.7-9.7,13.8-20.5,3.5-5.3,7.8-10.8,12.6-16.1,4.7-5.3,8.8-9.1,12.1-11.5-5.4-4.5-13.5-6.8-23.9-6.8s-27.7,5.4-38.7,16.1c-8.9,8.7-13.5,17.1-13.5,24.8s1.3,7,3.7,9.3c2.5,2.3,5.9,3.4,10.2,3.4,7,0,14.3-3.4,21.8-10.2,7.5-6.7,11.3-13.4,11.3-19.7s-2.5-7.5-7.7-7.5-10.8,2.9-16.8,8.7c-5.9,5.8-9,11.3-9,16.4s.4,2.3,1.2,3.2c.8.9,1.8,1.3,2.8,1.3s1.1.4,1.1.6-.4.6-1.2.6c-1.7,0-3.2-.8-4.4-2.4-1.2-1.6-1.8-3.5-1.8-5.7,0-5.5,3.1-11,9.1-16.2,6-5.2,12.3-7.9,18.7-7.9s9.3,2.9,9.3,8.6-3.9,13.9-11.6,20.8c-7.7,7-15.4,10.5-22.9,10.5s-8.9-1.5-11.9-4.5c-3-3-4.5-7-4.5-11.9,0-10,5.7-19.2,16.9-27.4,11.2-8.2,23.8-12.4,37.4-12.4s19.1,2.3,26.1,6.9c6.4-4,12.7-6,18.7-6s8.6,1.4,11.5,4.3c2.9,2.8,4.4,6.6,4.4,11.3s-.2,3.9-.7,6.1c-.7,3-1.2,3.4-1.6,3.4s-.7-.3-.7-.7,0-.3.1-.5c.9-2.4,1.4-5.1,1.4-7.9,0-4.4-1.3-7.9-3.9-10.6-2.6-2.6-6.1-4-10.3-4s-11.8,1.9-17.8,5.6c5.1,4.1,7.7,8.7,7.7,13.5s-1.7,7.7-5,10.7c-3.2,2.8-7.5,4.6-12.6,5.3,3.4,2.1,5.2,5.2,5.2,9.1s-.9,6.8-2.8,12.3c-1.2,3.6-1.8,6.4-1.8,8.4s.7,3.8,2.2,5.2c1.5,1.4,3.3,2.1,5.4,2.1s4.3-.7,6.3-2.2c.7-.4.9-.5,1.1-.5.4,0,.6.2.6.6,0,.7-1,1.4-3.1,2.2-2,.8-3.7,1.2-5.2,1.2ZM285.5,119.7h0c1.4,1.2,2.1,2.7,2.1,4.4s-.3,2.9-1,4.8c-2.5,7.2-3.8,12.4-3.8,15.2s1.1,7.3,3.4,9.9c2.2,2.6,5.1,4,8.4,4s3.1-.4,5.1-1.2c2.5-1,2.9-1.6,2.9-1.9s0-.3-.3-.3-.3,0-.9.4c-2,1.5-4.2,2.3-6.5,2.3s-4.1-.8-5.7-2.2c-1.5-1.5-2.3-3.3-2.3-5.5s.6-4.9,1.9-8.5c1.9-5.4,2.8-9.5,2.8-12.2,0-3.9-1.8-7-5.4-9.1l-.4-.3h.5c5.3-.7,9.7-2.5,12.9-5.4,3.2-2.9,4.9-6.4,4.9-10.4s-2.6-9.3-7.8-13.4h-.2c0-.1.2-.3.2-.3,6.1-3.8,12.2-5.8,18.2-5.8s7.9,1.4,10.6,4.1c2.7,2.7,4,6.3,4,10.8s-.5,5.6-1.4,8c0,.2,0,.3,0,.4,0,.3.1.4.4.4s.6-.2,1.2-3.1c.5-2.2.7-4.2.7-6,0-4.5-1.4-8.2-4.3-11-2.8-2.8-6.6-4.2-11.3-4.2s-12.2,2-18.6,6h0c0,0,0,0,0,0-7-4.6-15.7-6.9-26-6.9s-26,4.1-37.2,12.3c-11.2,8.2-16.8,17.3-16.8,27.1s1.5,8.8,4.4,11.7c2.9,2.9,6.8,4.4,11.6,4.4,7.4,0,15.1-3.5,22.7-10.4,7.6-6.9,11.5-13.8,11.5-20.6s-2.9-8.2-8.9-8.2-12.5,2.6-18.4,7.8c-6,5.1-9,10.5-9,15.9s.6,4,1.7,5.5c1.1,1.5,2.5,2.2,4.2,2.2s.8,0,.8-.3-.2-.3-.7-.3c-1.2,0-2.2-.5-3.1-1.4-.9-.9-1.3-2.1-1.3-3.4,0-5.2,3-10.7,9.1-16.6,6-5.9,11.7-8.8,17-8.8s8,2.6,8,7.8-3.8,13.1-11.4,19.9c-7.5,6.8-15,10.2-22.1,10.2s-7.9-1.2-10.4-3.5c-2.6-2.3-3.9-5.6-3.9-9.5,0-7.8,4.6-16.2,13.6-25,11-10.7,24.1-16.2,38.9-16.2s18.8,2.4,24.3,7.1h.2c0,.1-.2.3-.2.3-3.4,2.3-7.5,6.2-12.3,11.5-4.8,5.4-9,10.8-12.5,16.1-7.1,10.8-11.7,17.7-13.8,20.5-1.9,2.6-4.3,5.2-7,7.7-6.3,5.7-13.4,8.6-21.1,8.6s-8.1-1-10.9-2.9c-2.9-2-4.4-4.5-4.4-7.4s.3-3,1-3,.2,0,.2,0c.1.1.2.3.2,1.2,0,.9.2,1.6.6,2,.4.4,1,.6,1.9.6s1.8-.4,2.5-1.2c.7-.8,1-1.8,1-3,0-2.3-1-3.4-3.1-3.4s-2.7.6-3.7,1.9c-1.1,1.3-1.6,2.8-1.6,4.5,0,3.2,1.6,5.8,4.6,8,3.1,2.1,7,3.2,11.7,3.2s12.3-1.8,19.6-5.4c6.2-3.1,11.1-6.6,14.5-10.4,3.4-3.8,7.3-10.1,11.4-18.8,6.8-14.3,14.2-24.5,21.9-30.3h.1c0-.1.6.7.6.7,2.7,3.2,4.1,6.6,4.1,10s-1.4,8.2-4.1,11.5c-2.7,3.2-6.2,5.2-10.4,5.9h0s0,0,0,0c-2.1-.8-4.1-1.2-6.2-1.2s-2.5.2-2.5.7.7,1.2,5.1,1.2,1.6-.1,3.8-.3h0Z"/>
        </g>
        <g>
          <path class="st3" d="M335.2,137.4c0,.1-.3.6-1,1.4l-2.3,2.8c-7.3,9-13.6,13.5-18.8,13.5s-4.5-.9-6.2-2.7-2.5-4-2.5-6.7c0-6.3,4.4-11.9,13.3-16.7,4.6-2.5,8.4-3.8,11.4-3.8s2.4.4,3.3,1.1c.9.8,1.3,1.7,1.3,2.8,0,2.5-1.7,4.7-5,6.5-3.3,1.8-8.8,3.4-16.6,5-2.4,3.6-3.6,6.7-3.6,9.1s1.6,4.5,4.9,4.5c5.6,0,12.4-5.4,20.5-16.3.4-.6.8-.8,1.1-.8.1,0,.2.1.2.3ZM330.8,127.6c0-1.1-.6-1.7-1.8-1.7-1.9,0-4.3,1.3-7.4,3.9-3,2.6-6,5.9-9,10.1,5.1-1.3,9.4-3.1,12.9-5.5s5.3-4.6,5.3-6.7Z"/>
          <path class="st3" d="M313.2,155.3c-2.5,0-4.6-.9-6.3-2.7-1.7-1.8-2.6-4.1-2.6-6.8,0-6.4,4.5-12.1,13.3-16.9,4.7-2.5,8.5-3.8,11.4-3.8s2.4.4,3.4,1.2c.9.8,1.4,1.8,1.4,2.9,0,2.6-1.7,4.8-5.1,6.6-3.3,1.8-8.9,3.5-16.6,5-2.3,3.6-3.5,6.6-3.5,8.9s1.6,4.4,4.7,4.4c5.5,0,12.3-5.5,20.3-16.2.5-.6.8-.9,1.2-.9.2,0,.4.1.4.5s0,.2-1,1.5l-2.3,2.8c-7.3,9-13.7,13.6-18.9,13.6ZM329.1,125.4c-2.9,0-6.7,1.3-11.3,3.8-8.7,4.8-13.2,10.4-13.2,16.6s.8,4.8,2.5,6.6c1.6,1.7,3.7,2.6,6.1,2.6,5.1,0,11.4-4.5,18.6-13.4l2.3-2.8c.8-1,.9-1.2.9-1.3,0-.1,0-.1,0-.1,0,0-.4.1-.9.8-8.1,10.9-15,16.4-20.6,16.4s-5.1-1.6-5.1-4.7,1.2-5.5,3.6-9.2h0c0,0,0,0,0,0,7.7-1.5,13.3-3.2,16.5-5,3.2-1.7,4.9-3.9,4.9-6.3s-.4-1.9-1.3-2.6c-.9-.7-1.9-1.1-3.1-1.1ZM312.2,140.2l.3-.4c2.9-4.1,5.9-7.5,9-10.1,3.1-2.6,5.6-3.9,7.5-3.9s2,.6,2,1.9c0,2.2-1.8,4.5-5.4,6.9-3.5,2.4-7.9,4.2-12.9,5.5h-.4ZM328.9,126.1c-1.8,0-4.3,1.3-7.3,3.8-2.9,2.5-5.8,5.7-8.7,9.7,4.8-1.3,9-3.1,12.4-5.4,3.5-2.3,5.2-4.6,5.2-6.6s-.5-1.5-1.7-1.5Z"/>
        </g>
        <g>
          <path class="st3" d="M377.5,137.4c0,.7-2.6,4.2-7.7,10.3-4.2,5-7.5,7.5-9.9,7.5s-2.9-.6-4-1.8c-1.1-1.2-1.6-2.7-1.6-4.5s.3-3.1,1-4.4c.7-1.4,2.4-4,5.1-8.1,2.9-4.2,4.3-6.9,4.3-8.1s-.8-2.2-2.3-2.2c-5.1,0-13.1,9.5-23.8,28.6-1.7-.1-2.8-.2-3.1-.2-1.2,0-2.4,0-3.5.2l8.2-13c4.7-7.5,7-12.1,7-14s-.4-1.6-1.3-1.6c-1.8,0-5.3,3.8-10.6,11.4-.3.5-.6.7-.7.7-.2,0-.3-.1-.3-.3,0-.2.1-.3.2-.4l1-1.3c5.4-7.2,9-10.9,10.9-10.9s2.2.5,3.1,1.6c.8,1.1,1.3,2.4,1.3,3.9,0,2.3-1.3,5.4-4,9.4,4.2-5.7,7.4-9.7,9.6-11.8,2.2-2.1,4.3-3.2,6.2-3.2s2.9.6,3.9,1.9c1.1,1.3,1.6,2.8,1.6,4.7s-1.6,6-4.9,10.8-5,8.1-5,9.5.7,2.2,2.2,2.2c3.1,0,8.6-5.6,16.2-16.8.2-.4.4-.5.5-.5s.3.1.3.3Z"/>
          <path class="st3" d="M360,155.3c-1.6,0-3-.6-4.1-1.9-1.1-1.3-1.7-2.8-1.7-4.7s.3-3.1,1-4.5c.7-1.4,2.3-4,5.1-8.1,2.8-4.2,4.2-6.9,4.2-8s-.7-2-2.1-2c-5.1,0-13,9.6-23.6,28.5h0c0,0-.1,0-.1,0-2.1-.2-2.9-.2-3.1-.2-1.2,0-2.4,0-3.5.2h-.4s.2-.3.2-.3l8.2-13c4.6-7.4,7-12.1,7-13.9s-.4-1.4-1.2-1.4c-1.7,0-5.3,3.8-10.5,11.3-.4.5-.6.8-.8.8h0c-.3,0-.5-.2-.5-.5h0s0,0,0,0c0-.2.1-.4.3-.5l1-1.3c5.5-7.3,9.1-10.9,11-10.9s2.3.6,3.2,1.7c.9,1.1,1.3,2.5,1.3,4s-.7,3.8-2.1,6.4c3.1-4.2,5.6-7.1,7.4-8.9,2.3-2.1,4.4-3.2,6.3-3.2s3,.7,4,2c1.1,1.3,1.6,2.9,1.6,4.8s-1.6,6.1-4.9,10.9c-3.3,4.9-4.9,8.1-4.9,9.4s.7,2,2,2c3.1,0,8.5-5.6,16.1-16.7.2-.4.4-.6.7-.6s.5.2.5.5c0,.5-.8,2.1-7.7,10.4-4.3,5.1-7.5,7.6-10,7.6ZM362.4,125.9c1.6,0,2.4.8,2.4,2.3s-1.4,3.9-4.3,8.2c-2.7,4-4.4,6.7-5.1,8-.6,1.3-1,2.8-1,4.3s.5,3.2,1.6,4.4c1,1.2,2.3,1.8,3.9,1.8,2.3,0,5.6-2.5,9.8-7.5,6.3-7.5,7.6-9.7,7.6-10.2s0-.1-.1-.1-.2,0-.4.4c-7.8,11.4-13.2,16.9-16.4,16.9s-2.3-.8-2.3-2.3,1.6-4.6,5-9.6c3.2-4.8,4.8-8.4,4.8-10.7s-.5-3.4-1.5-4.6c-1-1.2-2.3-1.8-3.8-1.8s-3.9,1.1-6.1,3.1c-2.2,2.1-5.4,6.1-9.6,11.8l-.3-.2c2.6-4,3.9-7.1,3.9-9.3s-.4-2.7-1.2-3.8c-.8-1.1-1.8-1.6-2.9-1.6-1.8,0-5.4,3.6-10.8,10.8l-1,1.3c0,0-.1.2-.2.3,0,.1,0,.1.1.1,0,0,.2,0,.6-.7,5.4-7.7,8.9-11.5,10.8-11.5s1.5.3,1.5,1.8-2.3,6.5-7.1,14.1l-8.1,12.7c1-.1,2-.2,3.2-.2s1.4,0,3,.2c10.8-19.3,18.6-28.6,23.9-28.6Z"/>
        </g>
        <g>
          <path class="st3" d="M408.8,137.3c0,.6-1,1.9-3.1,3.9-3.1,3.1-6,4.6-8.6,4.6s-2.1-.2-2.9-.6c-4.7,6.6-9,9.9-13.1,9.9s-3.9-.9-5.4-2.6-2.2-3.8-2.2-6.3c0-5.4,3.6-10.7,10.7-15.7,5-3.6,9.1-5.3,12.4-5.3s4.5,1.6,4.5,4.9-2.1,8.9-6.4,14.6c.7.4,1.5.6,2.4.6,1.6,0,3.4-.7,5.6-2.2,2.1-1.5,3.8-3.2,5.2-5.3.4-.5.7-.7.8-.7s.2,0,.2.2ZM400.2,130.2c0-2.9-1.3-4.3-3.9-4.3s-7.1,3.1-11.7,9.2-6.9,11.3-6.9,15.5,1.2,3.6,3.5,3.6c3.8,0,8-3.1,12.5-9.4-1-1.1-1.5-2.3-1.5-3.5,0-1.7.7-3.5,2.1-5.3,1.4-1.8,2.7-2.7,4-2.7s1,.4,1.2,1.1c.6-1.2.8-2.6.8-4.1Z"/>
          <path class="st3" d="M381.1,155.3c-2.2,0-4-.9-5.5-2.7-1.5-1.8-2.3-3.9-2.3-6.4,0-5.5,3.6-10.8,10.7-15.8,5-3.6,9.2-5.4,12.5-5.4s4.7,1.7,4.7,5-2.1,8.9-6.3,14.6c.6.3,1.4.5,2.1.5,1.5,0,3.4-.7,5.5-2.2,2.1-1.5,3.8-3.2,5.1-5.3.6-.7.8-.8,1-.8.2,0,.4.1.4.4,0,.4-.3,1.2-3.2,4.1-3.1,3.1-6,4.7-8.7,4.7s-2-.2-2.9-.6c-4.6,6.5-9.1,9.8-13.2,9.8ZM396.5,125.4c-3.2,0-7.3,1.8-12.3,5.3-7,5-10.6,10.2-10.6,15.6s.7,4.4,2.2,6.1c1.5,1.7,3.2,2.6,5.3,2.6,4,0,8.4-3.3,13-9.8h0c0-.1.1,0,.1,0,.8.4,1.8.6,2.8.6,2.5,0,5.4-1.5,8.4-4.6,2.5-2.5,3.1-3.5,3.1-3.8s0,0,0,0h0s0,0,0,0-.2,0-.7.7c-1.3,2.1-3.1,3.9-5.2,5.4-2.1,1.5-4,2.2-5.7,2.2s-1.7-.2-2.5-.7h-.2c0,0,.1-.2.1-.2,4.2-5.6,6.4-10.5,6.4-14.5s-1.4-4.7-4.4-4.7ZM381.2,154.4c-2.4,0-3.7-1.3-3.7-3.8,0-4.2,2.3-9.4,7-15.6,4.6-6.1,8.6-9.3,11.9-9.3s4,1.5,4,4.4-.3,2.9-.9,4.2l-.2.4v-.4c-.3-.6-.6-.9-1.1-.9-1.2,0-2.5.9-3.9,2.7-1.3,1.8-2,3.6-2,5.2s.5,2.3,1.5,3.4h0c0,.1,0,.2,0,.2-4.5,6.3-8.8,9.5-12.6,9.5ZM396.4,126.1c-3.1,0-7,3.1-11.6,9.1-4.6,6.1-6.9,11.2-6.9,15.4s1.1,3.5,3.3,3.5c3.7,0,7.8-3.1,12.2-9.2-1-1.1-1.5-2.3-1.5-3.5,0-1.8.7-3.6,2.1-5.4,1.4-1.9,2.8-2.8,4.1-2.8s.9.1,1.2.8c.4-1.1.7-2.3.7-3.7,0-2.8-1.2-4.1-3.7-4.1Z"/>
        </g>
        <g>
          <path class="st3" d="M438.4,137.3c0,.4-1.1,1.8-3.3,4.1-3.1,3.2-5.7,4.8-8,4.8s-2.8-.8-3.9-2.5c-3.1,4.3-5.7,7.3-7.7,9-2,1.7-4,2.5-6,2.5s-3.3-.6-4.5-1.9c-1.2-1.2-1.8-2.8-1.8-4.5s1.2-5.1,3.5-9.1l8.3-14c1.7.2,2.9.3,3.5.3,1.3,0,2.3,0,3.1-.3l-11,17.9c-2.4,4-3.6,6.8-3.6,8.3s.9,2.5,2.8,2.5,3.5-.8,5.3-2.4c1.8-1.6,4.4-4.6,7.8-9-.3-1.1-.5-2-.5-2.8,0-3.2,1-6.5,3-9.9,2-3.4,3.9-5.1,5.7-5.1s1.3.5,1.3,1.5c0,2.6-2.9,8.1-8.8,16.3.7,1.6,1.9,2.4,3.4,2.4,2.7,0,5.9-2.4,9.8-7.2.7-.8,1.2-1.3,1.4-1.3s.2,0,.2.2Z"/>
          <path class="st3" d="M409.6,155.3c-1.8,0-3.4-.6-4.7-1.9-1.3-1.3-1.9-2.8-1.9-4.6s1.2-5.2,3.6-9.2l8.4-14.1h.1c1.7.2,2.9.3,3.5.3,1.3,0,2.3,0,3.1-.3h.4c0,0-11.3,18.1-11.3,18.1-2.4,4-3.6,6.7-3.6,8.3s.9,2.3,2.6,2.3,3.4-.8,5.2-2.3c1.8-1.6,4.4-4.6,7.7-8.9-.3-1-.5-2-.5-2.8,0-3.2,1-6.6,3-10,2-3.4,4-5.2,5.9-5.2s1.5.3,1.5,1.7c0,2.7-2.9,8-8.7,16.3.7,1.5,1.8,2.2,3.2,2.2,2.6,0,5.9-2.4,9.7-7.1,1-1.2,1.3-1.3,1.5-1.3s.4.1.4.4-.4,1.1-3.4,4.2c-3.1,3.2-5.8,4.9-8.2,4.9s-2.8-.8-3.9-2.4c-3.1,4.2-5.6,7.2-7.5,8.8-2,1.7-4,2.5-6.1,2.5ZM415.1,125.8l-8.3,13.9c-2.3,3.9-3.5,7-3.5,9s.6,3.2,1.8,4.4c1.2,1.2,2.7,1.8,4.4,1.8s3.9-.8,5.9-2.5c2-1.7,4.5-4.7,7.6-9l.2-.2v.2c1.1,1.6,2.4,2.5,3.9,2.5,2.2,0,4.9-1.6,7.9-4.8,2.9-3,3.3-3.8,3.3-4s0,0,0,0h0s0,0,0,0c0,0-.3,0-1.2,1.2-3.9,4.8-7.2,7.2-9.9,7.2s-2.8-.8-3.6-2.5h0c0,0,0-.2,0-.2,5.8-8.2,8.7-13.6,8.7-16.2s-.4-1.4-1.2-1.4c-1.8,0-3.6,1.7-5.6,5-1.9,3.3-2.9,6.6-2.9,9.8s.2,1.7.5,2.8h0c0,0,0,.2,0,.2-3.4,4.4-6,7.4-7.8,9-1.8,1.6-3.7,2.4-5.4,2.4s-3-.9-3-2.7,1.2-4.4,3.7-8.4l10.8-17.5c-.7.1-1.7.2-2.8.2s-1.7,0-3.4-.3Z"/>
        </g>
        <g>
          <path class="st3" d="M475.6,137.4c0,.7-2.6,4.2-7.7,10.3-4.2,5-7.4,7.5-9.8,7.5s-2.9-.6-4-1.8c-1-1.2-1.5-2.7-1.5-4.6s.6-4,1.7-6.2c-3.5,4.9-6.2,8.3-8.1,10s-3.7,2.6-5.4,2.6-3.4-.8-4.7-2.4c-1.3-1.6-1.9-3.6-1.9-6,0-6.8,4.8-12.7,14.3-18,4.2-2.3,7.6-3.5,10.1-3.5s3.3,1.1,3.3,3.2-.1,1.4-.4,2.4l2.7-5.1c1.1.2,2,.4,2.8.4s2.2-.1,3.7-.4l-9.3,15.5c-3.2,5.4-4.9,9-4.9,10.7s.7,2.5,2.1,2.5,3.7-1.6,6.8-4.8c3.1-3.2,6.3-7.2,9.5-11.9.2-.4.4-.5.6-.5s.3.1.3.3ZM461,128.6c0-1.7-.8-2.6-2.4-2.6-3.2,0-7.5,3.2-12.8,9.5-5.3,6.3-7.9,11.5-7.9,15.4s1,3.4,3.1,3.4,6.6-4,12.6-12.1c4.9-6.6,7.3-11.2,7.3-13.6Z"/>
          <path class="st3" d="M458,155.3c-1.7,0-3-.6-4.1-1.9-1-1.2-1.6-2.8-1.6-4.7s.3-3,1-4.7c-3,4.2-5.4,7.1-7.1,8.6-1.9,1.7-3.8,2.6-5.6,2.6s-3.5-.8-4.8-2.5c-1.3-1.6-1.9-3.7-1.9-6.2,0-6.8,4.8-12.9,14.4-18.1,4.2-2.3,7.6-3.5,10.2-3.5s3.4,1.1,3.4,3.3,0,.7-.1,1.1l2.1-4.1h.1c1,.3,2,.4,2.8.4s2.2-.1,3.7-.4h.4c0,0-9.5,15.7-9.5,15.7-3.2,5.4-4.8,8.9-4.8,10.6s.6,2.3,1.9,2.3,3.6-1.6,6.7-4.8c3.1-3.2,6.3-7.2,9.5-11.9.2-.4.5-.6.7-.6s.5.2.5.5c0,.5-.8,2.1-7.8,10.4-4.2,5.1-7.5,7.6-10,7.6ZM454.1,142.5l.3.2c-1.1,2.2-1.7,4.2-1.7,6.1s.5,3.3,1.5,4.5c1,1.2,2.3,1.8,3.8,1.8,2.3,0,5.6-2.5,9.7-7.5,6.3-7.5,7.7-9.7,7.7-10.2s0-.1-.1-.1-.2,0-.4.4c-3.2,4.7-6.4,8.7-9.5,12-3.2,3.3-5.4,4.9-6.9,4.9s-2.2-.9-2.2-2.7,1.6-5.3,4.9-10.8l9.2-15.2c-1.4.2-2.5.3-3.4.3s-1.7-.1-2.7-.3l-3.4,6.5.4-1.6c.3-1,.4-1.8.4-2.3,0-2-1-3-3.1-3s-5.9,1.2-10.1,3.5c-9.4,5.2-14.2,11.2-14.2,17.8s.6,4.4,1.9,5.9c1.2,1.6,2.8,2.3,4.6,2.3s3.5-.9,5.3-2.5c1.8-1.7,4.6-5.1,8.1-10ZM441,154.5c-2.1,0-3.2-1.2-3.2-3.6,0-3.9,2.7-9.1,7.9-15.5,5.3-6.3,9.6-9.6,12.9-9.6s2.5.9,2.5,2.8-2.4,7-7.4,13.7c-6.1,8.2-10.3,12.2-12.8,12.2ZM458.6,126.2c-3.2,0-7.4,3.2-12.6,9.4-5.2,6.3-7.9,11.4-7.9,15.3s.9,3.3,2.9,3.3,6.6-4,12.5-12c4.9-6.6,7.3-11.1,7.3-13.5s-.7-2.4-2.2-2.4Z"/>
        </g>
        <g>
          <path class="st3" d="M495.1,125.2l-.4.8h-6.9l-11.8,20.1c-1.4,2.4-2.2,4.4-2.2,5.8s.8,2.4,2.5,2.4c3.2,0,8.6-5.6,16.2-16.8.2-.4.5-.5.6-.5s.3.1.3.3c0,.1-.2.4-.5.8l-2.3,3.1c-6.6,9.2-11.6,13.8-15,13.8s-3-.6-4.2-1.8c-1.1-1.2-1.7-2.7-1.7-4.5s.9-4.8,2.8-7.9l8.9-14.9h-5.4l.5-.8h5.3l6.2-10.2c1.1.3,2.1.4,3,.4s2-.1,3.1-.4l-6.1,10.2h6.9Z"/>
          <path class="st3" d="M475.8,155.3c-1.7,0-3.1-.6-4.3-1.9-1.1-1.2-1.7-2.8-1.7-4.6s.9-4.8,2.8-8l8.7-14.6h-5.4l.8-1.1h5.3l6.2-10.3h.1c1,.3,2,.4,3,.4s2-.1,3-.4h.4c0-.1-6.1,10.2-6.1,10.2h6.9l-.6,1.1h-6.9l-11.7,20c-1.4,2.4-2.1,4.3-2.1,5.7s.8,2.2,2.3,2.2c3.1,0,8.6-5.6,16.1-16.7.3-.4.5-.6.8-.6s.5.2.5.5h0c0,.1-.1.3-.5.9l-2.3,3.1c-6.7,9.3-11.7,13.9-15.1,13.9ZM476.5,125.9h5.4l-.2.3-8.9,14.9c-1.8,3.1-2.8,5.8-2.8,7.8s.5,3.2,1.6,4.4c1.1,1.2,2.4,1.7,4,1.7,3.3,0,8.3-4.6,14.8-13.7l2.3-3.1c.4-.5.5-.7.5-.8,0,0,0-.1-.1-.1s-.2,0-.5.5c-7.7,11.3-13.1,16.8-16.4,16.8s-2.7-.9-2.7-2.5.7-3.5,2.2-5.9l11.8-20.2h6.9l.2-.5h-6.9l.2-.3,5.9-9.9c-.9.2-1.8.3-2.7.3s-1.9-.1-2.9-.4l-6.2,10.2h-5.3l-.3.5Z"/>
        </g>
        <g>
          <path class="st3" d="M511.6,137.4c0,.1-.2.4-.5.8l-2.3,3.1c-6.6,9.2-11.7,13.8-15.2,13.8s-3-.6-4.2-1.8c-1.1-1.2-1.7-2.6-1.7-4.4s1.2-5.1,3.6-9.3l8.2-14c1.1.2,2,.4,2.6.4,1,0,2.3-.1,4-.4l-12,19.7c-1.7,2.9-2.6,5.1-2.6,6.6s.8,2.4,2.5,2.4c3.1,0,8.7-5.6,16.6-16.8.2-.4.4-.5.5-.5s.3.1.3.3ZM510.8,115.5c0,1.2-.5,2.4-1.6,3.5-1,1.1-2.2,1.6-3.4,1.6s-2.4-.8-2.4-2.4.5-2.3,1.6-3.4c1.1-1.1,2.2-1.6,3.4-1.6s2.3.8,2.3,2.3Z"/>
          <path class="st3" d="M493.6,155.3c-1.7,0-3.1-.6-4.3-1.8-1.1-1.2-1.7-2.7-1.7-4.5s1.2-5.2,3.7-9.4l8.3-14.1h.1c1.1.3,1.9.4,2.6.4.9,0,2.3-.1,4-.4h.4c0,0-12.2,20-12.2,20-1.7,2.8-2.6,5-2.6,6.5s.8,2.2,2.3,2.2c3.1,0,8.6-5.6,16.4-16.7.2-.4.4-.6.7-.6s.5.2.5.5h0c0,.1-.1.3-.6.9l-2.3,3.1c-6.7,9.3-11.7,13.9-15.3,13.9ZM499.8,125.9l-8.2,13.9c-2.4,4.1-3.6,7.2-3.6,9.2s.5,3.2,1.6,4.3c1.1,1.1,2.4,1.7,4,1.7,3.4,0,8.5-4.6,15-13.7l2.3-3.1c.4-.5.5-.7.5-.8,0,0,0-.1-.1-.1s-.2,0-.4.4c-8,11.4-13.5,16.9-16.7,16.9s-2.7-.9-2.7-2.5.9-3.8,2.6-6.7l11.8-19.4c-1.6.2-2.8.3-3.7.3s-1.5-.1-2.5-.3ZM505.9,120.8c-1.7,0-2.5-.9-2.5-2.5s.6-2.4,1.7-3.5c1.1-1.1,2.3-1.7,3.6-1.7s2.4.8,2.4,2.4-.5,2.5-1.6,3.6c-1.1,1.1-2.3,1.7-3.5,1.7ZM508.6,113.4c-1.1,0-2.3.5-3.3,1.6-1.1,1-1.6,2.1-1.6,3.2s.7,2.2,2.2,2.2,2.3-.5,3.3-1.6c1-1,1.5-2.2,1.5-3.3s-.7-2.1-2.1-2.1Z"/>
        </g>
        <g>
          <path class="st3" d="M543,137.3c0,.6-1,1.9-3.1,3.9-3.1,3.1-6,4.6-8.6,4.6s-2.1-.2-2.9-.6c-4.7,6.6-9,9.9-13.1,9.9s-3.9-.9-5.4-2.6-2.2-3.8-2.2-6.3c0-5.4,3.6-10.7,10.7-15.7,5-3.6,9.1-5.3,12.4-5.3s4.5,1.6,4.5,4.9-2.1,8.9-6.4,14.6c.7.4,1.5.6,2.4.6,1.6,0,3.4-.7,5.6-2.2,2.1-1.5,3.8-3.2,5.2-5.3.4-.5.7-.7.8-.7s.2,0,.2.2ZM534.4,130.2c0-2.9-1.3-4.3-3.9-4.3s-7.1,3.1-11.7,9.2-6.9,11.3-6.9,15.5,1.2,3.6,3.5,3.6c3.8,0,8-3.1,12.5-9.4-1-1.1-1.5-2.3-1.5-3.5,0-1.7.7-3.5,2.1-5.3,1.4-1.8,2.7-2.7,4-2.7s1,.4,1.2,1.1c.6-1.2.8-2.6.8-4.1Z"/>
          <path class="st3" d="M515.3,155.3c-2.2,0-4-.9-5.5-2.7-1.5-1.8-2.3-3.9-2.3-6.4,0-5.5,3.6-10.8,10.7-15.8,5-3.6,9.2-5.4,12.5-5.4s4.7,1.7,4.7,5-2.1,8.9-6.3,14.6c.6.3,1.4.5,2.1.5,1.5,0,3.4-.7,5.5-2.2,2.1-1.5,3.8-3.2,5.1-5.3.6-.7.8-.8,1-.8.2,0,.4.1.4.4,0,.4-.3,1.2-3.2,4.1-3.1,3.1-6,4.7-8.7,4.7s-2-.2-2.9-.6c-4.6,6.5-9.1,9.8-13.2,9.8ZM530.6,125.4c-3.2,0-7.3,1.8-12.3,5.3-7,5-10.6,10.2-10.6,15.6s.7,4.4,2.2,6.1c1.5,1.7,3.2,2.6,5.3,2.6,4,0,8.4-3.3,13-9.8h0c0-.1.1,0,.1,0,.8.4,1.8.6,2.8.6,2.5,0,5.4-1.5,8.4-4.6,2.5-2.5,3.1-3.5,3.1-3.8s0,0,0,0h0s0,0,0,0-.2,0-.7.7c-1.3,2.1-3.1,3.9-5.2,5.4-2.1,1.5-4,2.2-5.7,2.2s-1.7-.2-2.5-.7h-.2c0,0,.1-.2.1-.2,4.2-5.6,6.4-10.5,6.4-14.5s-1.4-4.7-4.4-4.7ZM515.4,154.4c-2.4,0-3.7-1.3-3.7-3.8,0-4.2,2.3-9.4,7-15.6,4.6-6.1,8.6-9.3,11.9-9.3s4,1.5,4,4.4-.3,2.9-.9,4.2l-.2.4v-.4c-.3-.6-.6-.9-1.1-.9-1.2,0-2.5.9-3.9,2.7-1.3,1.8-2,3.6-2,5.2s.5,2.3,1.5,3.4h0c0,.1,0,.2,0,.2-4.5,6.3-8.8,9.5-12.6,9.5ZM530.5,126.1c-3.1,0-7,3.1-11.6,9.1-4.6,6.1-6.9,11.2-6.9,15.4s1.1,3.5,3.3,3.5c3.7,0,7.8-3.1,12.2-9.2-1-1.1-1.5-2.3-1.5-3.5,0-1.8.7-3.6,2.1-5.4,1.4-1.9,2.8-2.8,4.1-2.8s.9.1,1.2.8c.4-1.1.7-2.3.7-3.7,0-2.8-1.2-4.1-3.7-4.1Z"/>
        </g>
        <g>
          <path class="st3" d="M585.4,137.4c0,.7-2.6,4.2-7.7,10.3-4.2,5-7.5,7.5-9.9,7.5s-2.9-.6-4-1.8c-1.1-1.2-1.6-2.7-1.6-4.5s.3-3.1,1-4.4c.7-1.4,2.4-4,5.1-8.1,2.9-4.2,4.3-6.9,4.3-8.1s-.8-2.2-2.3-2.2c-5.1,0-13.1,9.5-23.8,28.6-1.7-.1-2.8-.2-3.1-.2-1.2,0-2.4,0-3.5.2l8.2-13c4.7-7.5,7-12.1,7-14s-.4-1.6-1.3-1.6c-1.8,0-5.3,3.8-10.6,11.4-.3.5-.6.7-.7.7-.2,0-.3-.1-.3-.3,0-.2.1-.3.2-.4l1-1.3c5.4-7.2,9-10.9,10.9-10.9s2.2.5,3.1,1.6c.8,1.1,1.3,2.4,1.3,3.9,0,2.3-1.3,5.4-4,9.4,4.2-5.7,7.4-9.7,9.6-11.8,2.2-2.1,4.3-3.2,6.2-3.2s2.9.6,3.9,1.9c1.1,1.3,1.6,2.8,1.6,4.7s-1.6,6-4.9,10.8-5,8.1-5,9.5.7,2.2,2.2,2.2c3.1,0,8.6-5.6,16.2-16.8.2-.4.4-.5.5-.5s.3.1.3.3Z"/>
          <path class="st3" d="M567.8,155.3c-1.6,0-3-.6-4.1-1.9-1.1-1.3-1.7-2.8-1.7-4.7s.3-3.1,1-4.5c.7-1.4,2.3-4,5.1-8.1,2.8-4.2,4.2-6.9,4.2-8s-.7-2-2.1-2c-5.1,0-13,9.6-23.6,28.5h0c0,0-.1,0-.1,0-2.1-.2-2.9-.2-3.1-.2-1.2,0-2.4,0-3.5.2h-.4s.2-.3.2-.3l8.2-13c4.6-7.4,7-12.1,7-13.9s-.4-1.4-1.2-1.4c-1.7,0-5.3,3.8-10.5,11.3-.4.5-.6.8-.8.8h0c-.3,0-.5-.2-.5-.5h0s0,0,0,0c0-.2.1-.4.3-.5l1-1.3c5.5-7.3,9.1-10.9,11-10.9s2.3.6,3.2,1.7c.9,1.1,1.3,2.5,1.3,4s-.7,3.8-2.1,6.4c3.1-4.2,5.6-7.1,7.4-8.9,2.3-2.1,4.4-3.2,6.3-3.2s3,.7,4,2c1.1,1.3,1.6,2.9,1.6,4.8s-1.6,6.1-4.9,10.9c-3.3,4.9-4.9,8.1-4.9,9.4s.7,2,2,2c3.1,0,8.5-5.6,16.1-16.7.2-.4.4-.6.7-.6s.5.2.5.5c0,.5-.8,2.1-7.7,10.4-4.3,5.1-7.5,7.6-10,7.6ZM570.3,125.9c1.6,0,2.4.8,2.4,2.3s-1.4,3.9-4.3,8.2c-2.7,4-4.4,6.7-5.1,8-.6,1.3-1,2.8-1,4.3s.5,3.2,1.6,4.4c1,1.2,2.3,1.8,3.9,1.8,2.3,0,5.6-2.5,9.8-7.5,6.3-7.5,7.6-9.7,7.6-10.2s0-.1-.1-.1-.2,0-.4.4c-7.8,11.4-13.2,16.9-16.4,16.9s-2.3-.8-2.3-2.3,1.6-4.6,5-9.6c3.2-4.8,4.8-8.4,4.8-10.7s-.5-3.4-1.5-4.6c-1-1.2-2.3-1.8-3.8-1.8s-3.9,1.1-6.1,3.1c-2.2,2.1-5.4,6.1-9.6,11.8l-.3-.2c2.6-4,3.9-7.1,3.9-9.3s-.4-2.7-1.2-3.8c-.8-1.1-1.8-1.6-2.9-1.6-1.8,0-5.4,3.6-10.8,10.8l-1,1.3c0,0-.1.2-.2.3,0,.1,0,.1.1.1,0,0,.2,0,.6-.7,5.4-7.7,8.9-11.5,10.8-11.5s1.5.3,1.5,1.8-2.3,6.5-7.1,14.1l-8.1,12.7c1-.1,2-.2,3.2-.2s1.4,0,3,.2c10.8-19.3,18.6-28.6,23.9-28.6Z"/>
        </g>
      </g>
    </g>
  </g>
  <text class="st4" transform="translate(209.8 188.4)"><tspan x="0" y="0">L&apos;ART DE RENOVER BY CARINA M.</tspan></text>
  <metadata>
    <sfw xmlns="http://ns.adobe.com/SaveForWeb/1.0/">
      <slices/>
      <sliceSourceBounds x="195.21" y="-382.65" width="578.41" height="187.49" bottomLeftOrigin="true"/>
      <optimizationSettings>
        <targetSettings fileFormat="PNG24Format" targetSettingsID="0">
          <PNG24Format filtered="false" interlaced="false" matteColor="#FFFFFF" noMatteColor="false" transparency="true"/>
        </targetSettings>
      </optimizationSettings>
    </sfw>
  </metadata>
</svg>