<?xml version="1.0" encoding="UTF-8"?><svg id="Layer_1" xmlns="http://www.w3.org/2000/svg" viewBox="0 0 457.7 307"><defs><style>.cls-1,.cls-2{fill:#fff;}.cls-2,.cls-3{fill-rule:evenodd;}.cls-4{fill:#f1c722;}.cls-3{fill:none;}.cls-5{fill:#f3c921;}.cls-6{fill:#023b51;}</style></defs><path class="cls-2" d="M210.3,174.1s.2,0,.5.1c-.2-.2-.3-.4-.5-.6l10.2,2.2c14.5,1.1,40.8-2.6,53.7-39.2,0,0,17.9-54.9-42-96.3,0,0,62.9,17.1,61,71.2,0,0,4.7,49.2-47.3,70,4.8,3.6,42.9,31.4,68.7,23.5l1.2,3.3s-54.7,25.7-104.8-33.8l-.7-.4Z"/><path class="cls-6" d="M445.7,34.4c-1.6,1.8-3.1.3-5.8,1.2-4.3,2.6-8.6,5.2-12.8,7.8-13.9,10.2-26.1,21.8-41.2,31.1-4.7,2.9-13.4,10.7-22.2,8.6-4.3-1-6-6.9-9.3-8.6,1.1-7.5-3.1-17.6-3.5-27.2-3.3,1.3-4.1,1-8.9,1.2-.3-.9-.5-1.8-.8-2.7-.6-.1-1.3-.3-1.9-.4-8.3,6.6-15.5,17.8-21.8,26.4-11.6,16-28.5,30.1-44.3,42-13.1,9.8-25.7,20-47.4,17.1-.6-4.1-4.3-5.2-4.7-9.7-.9-10,4.2-24.5.8-33.8-3.7-.8-13.6-5.4-19.8-4.3-23.8,4.4-44.8,15.7-63.4,26-17.5,9.7-35.3,16.9-52.5,26.8-11,6.3-42.7,25.3-59.9,21.8-8.4-13.1,4.9-29.7,10.5-38.9,13.2-21.4,34.5-37.8,55.2-51.7,6.9-4.6,28.6-15.3,32.3-21l.8-.8c-12.5-6-24.1,5.9-32.7,10.5-28.6,15.3-55.3,37.6-71.9,64.9-7.2,11.7-17.8,33.3-3.9,43.9,9.3,7.1,36.5.7,46.3-3.5,38.3-16.6,72.3-38.9,110-56.8,9.2-3.6,18.4-7.3,27.6-10.9,2.1-.7,9.3-2.1,10.1-.8,1.7,2.8-1.9,15.3-2.3,17.5-2.8,15.1,4.3,26.6,14.4,29.9,12.3,4.1,29.3-.2,38.5-3.9,20.6-8.3,44.6-34.1,58.7-50.1,6.1-6.9,15.2-15,19-23.7.4-.3.8-.5,1.2-.8,4.1,11.9,4,20.9,13.6,26.8,8.1,5,22.9,3.9,31.9-1.2,15.1-8.5,27.4-19.4,39.7-30.7,7.8-7.2,16.7-12.1,22.9-21-.8-.4-1.6-.8-2.3-1.2ZM43,105.9h.8c-.5,1.6-.5,1.5-1.6,2.3h-.4c.4-.8.8-1.6,1.2-2.3ZM40.2,109.4c.3.1.5.3.8.4-.4.4-.8.8-1.2,1.2h-.4c.3-.5.5-1,.8-1.6ZM35.6,105.1c.3.5.5,1,.8,1.6-1.6.7-2.1,1.3-2.7,3.1h-.4c-.3-.3-.5-.5-.8-.8,1-1.3,2.1-2.6,3.1-3.9ZM13,151c-.1.1-.3.3-.4.4h-.4c-3.2-12.3,13.6-32.9,18.7-40.4,1.7,2.6-3.9,7.9-5.4,10.1-5.1,7.2-12,19.4-12.4,29.9ZM38.3,111.7h1.2c-4.9,7.8-11.9,15.4-14.8,24.9-.3.1-.5.3-.8.4h-.4c1.6-9.9,10-17.9,14.8-25.3ZM212.4,110.9h-1.2c.4-3.5.8-7,1.2-10.5,2.3,1.4.2,8,0,10.5ZM289,107.4c-.1-.4-.3-.8-.4-1.2.6-.8,1.3-1.6,1.9-2.3.8,1,.2.2.4,1.2.4.9-.9,1.7-1.9,2.3ZM301.9,95.8c-.6.5-1.3,1-1.9,1.6-.5-.1-1-.3-1.6-.4v-.4c.8-.9,1.6-1.8,2.3-2.7,1.2.7.7,0,1.2,1.6v.4ZM335.7,53.4c.8.7.3,0,.8,1.2-.3.8-.5,1.6-.8,2.3-1.8.2-1.6.4-2.7-.4.9-1,1.8-2.1,2.7-3.1ZM307.3,90.7c-1.3.4-2.6.8-3.9,1.2v-.4c.8-.9,1.6-1.8,2.3-2.7h1.6v1.9ZM308.5,88.4h-1.2c.1-.6.3-1.3.4-1.9.5-.4,1-.8,1.6-1.2h1.6c-.7,1.9-1.4,1.6-2.3,3.1ZM320.9,82.2c-.1-.1-.3-.3-.4-.4.1-.4.3-.8.4-1.2h1.6c-.5.5-1,1-1.6,1.6ZM322.5,72.5c-4.7,4.4-6.3,9-11.3,12.1h-.4c1.6-5.5,7.5-9.2,10.5-13.6h1.2v1.6ZM323.2,79.5h-.4v-.4c.4-.5.8-1,1.2-1.6.3.3.5.5.8.8-.5.4-1,.8-1.6,1.2ZM327.1,75.6c-.6.3-1.3.5-1.9.8.6-.9,1.3-1.8,1.9-2.7.9,1.2.3.2,0,1.9ZM327.9,72.8c.4-.5.8-1,1.2-1.6.3.1.5.3.8.4-.8.8-.5.8-1.9,1.2ZM331.8,69.7c-.5.1-1,.3-1.6.4v-.4c3.1-4,6.2-8,9.3-12.1h.8c-2.9,4-5.7,8-8.6,12.1Z"/><path class="cls-2" d="M225.5,48l-.7-.4C174.7-11.9,120,13.8,120,13.8l1.2,3.3c25.9-7.9,64,19.9,68.7,23.5-52,20.8-47.3,70-47.3,70-1.9,54.2,61,71.3,61,71.3-60-41.5-42-96.4-42-96.4,12.9-36.6,39.1-40.3,53.7-39.3l10.2,2.2c-.2-.2-.3-.4-.5-.6.3,0,.5.1.5.1Z"/><path class="cls-4" d="M289.9,171.7c0-.6.6-1.4,1.8-2.1,2-1.1,3.8-3,5.3-5.7.5-.7,1.1-1.1,1.9-1.1s1.4.4,1.8,1.1c.4.7.6,1.3.6,1.6,1.8,2.4,3.2,3.8,4.5,4.5.8.4,1.3.7,1.5.9.2.2.2.6.2,1.1s-.4,1.3-1.2,1.7c-2,.9-3.8,2.7-5.5,5.4-.6,1.1-1.3,1.6-2,1.6s-1.5-.5-2.2-1.5c-.8-1.5-1.6-2.6-2.2-3.3-.6-.7-1.7-1.4-3.1-2.2-.7-.5-1.1-.8-1.3-1-.2-.2-.3-.5-.3-1Z"/><path class="cls-3" d="M210.3,174.1s.2,0,.5.1c-.2-.2-.3-.4-.5-.6l10.2,2.2c14.5,1.1,40.8-2.6,53.7-39.2,0,0,17.9-54.9-42-96.3,0,0,62.9,17.1,61,71.2,0,0,4.7,49.2-47.3,70,4.8,3.6,42.9,31.4,68.7,23.5l1.2,3.3s-54.7,25.7-104.8-33.8l-.7-.4Z"/><path class="cls-5" d="M99.4,231.3c.4.4.7.8,1.1,1.5l2.2,3.5-2.2,1.2-2.7-4.4c-.8-1.2-2-1.8-3.6-1.8s-3.9-.5-5.5-1.4-2.8-2.3-3.6-4c-.8-1.7-1.3-3.8-1.3-6.2s.4-4.5,1.2-6.2c.8-1.8,2-3.1,3.6-4,1.6-.9,3.4-1.4,5.5-1.4s3.9.5,5.5,1.4c1.6.9,2.8,2.3,3.6,4,.8,1.8,1.3,3.8,1.3,6.2s-.6,5.1-1.7,7-2.7,3.2-4.7,4c.5.2.9.4,1.3.8ZM88.5,226.5c1.3,1.6,3.2,2.5,5.6,2.5s4.3-.8,5.6-2.4c1.3-1.6,2-3.9,2-7s-.7-5.3-2-6.9c-1.3-1.6-3.2-2.4-5.7-2.4s-4.3.8-5.6,2.4c-1.3,1.6-2,3.9-2,6.9s.7,5.3,2,6.9Z"/><path class="cls-5" d="M113.9,228.9c-1.5-1.6-2.3-3.8-2.3-6.9v-13.9h2.6v14.1c0,2.2.5,3.9,1.6,5,1.1,1.1,2.7,1.7,4.8,1.7s3.7-.6,4.8-1.7c1.1-1.1,1.6-2.8,1.6-5v-14.1h2.6v13.9c0,3-.8,5.3-2.3,6.8-1.5,1.6-3.8,2.3-6.7,2.3s-5.2-.8-6.8-2.3Z"/><path class="cls-5" d="M154.8,230.9l-2.5-5.8h-11.9l-2.5,5.8h-2.7l10-22.8h2.3l10,22.8h-2.7ZM141.4,222.9h10l-5-11.7-5,11.7Z"/><path class="cls-5" d="M163.3,230.9v-22.8h2.6v20.5h11.4v2.3h-14.1Z"/><path class="cls-5" d="M183.2,230.9v-22.8h2.7v22.8h-2.7Z"/><path class="cls-1" d="M204.2,258.9c0,1.2-.2,2.6-.5,4-.3,1.5-.6,2.2-.9,2.2s-.4-.1-.4-.4,0-.2,0-.3c.6-1.7.9-3.4.9-5.4,0-3-.9-5.4-2.7-7.2s-4.1-2.7-7-2.7-8,1.3-12.1,3.9c3.5,2.8,5.3,5.8,5.3,9.1s-1.1,5.1-3.3,7.1c-2.2,2-5.1,3.2-8.8,3.6,2.5,1.4,3.7,3.5,3.7,6.2s-.6,4.5-1.9,8.2c-.8,2.4-1.2,4.3-1.2,5.7s.5,2.6,1.5,3.6,2.3,1.5,3.7,1.5,3-.5,4.3-1.5c.3-.2.5-.3.6-.3.2,0,.3,0,.3.3,0,.4-.7.9-2,1.4-1.3.5-2.5.8-3.4.8-2.3,0-4.2-.9-5.7-2.7-1.5-1.8-2.3-4.1-2.3-6.7s.9-5.4,2.6-10.3c.4-1.3.6-2.3.6-3.2s-.5-2.1-1.4-2.8c-1.5.1-2.4.2-2.6.2-2.3,0-3.5-.3-3.5-.9s.6-.6,1.8-.6,2.8.3,4.2.8c2.8-.4,5.1-1.8,6.9-3.9,1.8-2.2,2.7-4.7,2.7-7.6s-.9-4.5-2.7-6.7l-.4-.5c-5.2,3.9-10.1,10.7-14.7,20.3-2.8,5.8-5.4,10.1-7.7,12.6-2.3,2.6-5.6,4.9-9.8,7-4.9,2.4-9.4,3.6-13.2,3.6s-5.8-.7-7.9-2.2-3.2-3.3-3.2-5.5.4-2.2,1.1-3.1,1.6-1.3,2.6-1.3c1.4,0,2.2.8,2.2,2.4s-.2,1.5-.7,2.1c-.5.6-1.1.9-1.8.9-1.2,0-1.8-.6-1.8-1.9,0-.5,0-.8-.1-.8-.4,0-.6.6-.6,1.9,0,2,1,3.6,2.9,4.9,1.9,1.3,4.4,2,7.3,2,5.2,0,9.9-1.9,14.1-5.8,1.8-1.7,3.4-3.4,4.7-5.1,1.4-1.9,4.5-6.5,9.3-13.8,2.4-3.6,5.2-7.2,8.4-10.8,3.2-3.6,6-6.2,8.3-7.8-3.7-3.1-9.1-4.7-16.3-4.7s-18.7,3.6-26.1,10.8c-6.1,5.9-9.1,11.5-9.1,16.7s.9,4.8,2.6,6.3,4,2.3,6.9,2.3c4.8,0,9.7-2.3,14.8-6.9s7.6-9,7.6-13.3-1.8-5.1-5.3-5.1-7.3,2-11.3,5.9c-4,3.9-6.1,7.6-6.1,11.1s.3,1.6.9,2.2c.6.6,1.2.9,2,.9s.6.1.6.3-.2.3-.7.3c-1.1,0-2.1-.5-2.9-1.5-.8-1-1.2-2.3-1.2-3.8,0-3.7,2-7.3,6.1-10.8,4-3.5,8.2-5.3,12.5-5.3s6.1,1.9,6.1,5.6-2.6,9.2-7.8,13.9c-5.2,4.7-10.3,7-15.3,7s-5.9-1-7.9-3c-2-2-3-4.6-3-7.9,0-6.7,3.8-12.8,11.3-18.3,7.6-5.5,15.9-8.3,25.1-8.3s12.8,1.6,17.5,4.6c4.3-2.7,8.5-4,12.6-4s5.7.9,7.7,2.8c1.9,1.9,2.9,4.4,2.9,7.5Z"/><path class="cls-1" d="M180.4,298.8c-2.3,0-4.3-.9-5.8-2.8-1.6-1.8-2.3-4.1-2.3-6.8s.9-5.4,2.6-10.3c.4-1.2.6-2.3.6-3.2s-.4-2-1.3-2.7c-1.5.1-2.3.2-2.6.2-2.5,0-3.6-.3-3.6-1s.6-.7,1.9-.7,2.8.3,4.2.8c2.8-.4,5.1-1.8,6.8-3.9,1.8-2.1,2.7-4.7,2.7-7.6s-.9-4.5-2.7-6.6l-.3-.4c-5.1,3.9-10,10.7-14.6,20.2-2.8,5.8-5.4,10.1-7.7,12.7-2.3,2.6-5.6,4.9-9.8,7-4.9,2.4-9.4,3.6-13.3,3.6s-5.9-.7-8-2.2c-2.1-1.5-3.2-3.3-3.2-5.5s.4-2.3,1.1-3.2c.8-.9,1.7-1.4,2.7-1.4,1.5,0,2.3.9,2.3,2.5s-.3,1.5-.8,2.1c-.5.6-1.1.9-1.9.9s-1.1-.2-1.4-.5c-.3-.3-.5-.9-.5-1.5,0-.6,0-.7,0-.7-.1,0-.4.2-.4,1.8s1,3.5,2.8,4.8c1.9,1.3,4.3,1.9,7.2,1.9,5.1,0,9.8-1.9,14-5.7,1.8-1.7,3.4-3.4,4.7-5.1,1.4-1.9,4.5-6.5,9.3-13.8,2.4-3.6,5.2-7.2,8.5-10.8,3.2-3.5,5.9-6.1,8.2-7.7-3.7-3.1-9.1-4.6-16.1-4.6s-18.7,3.6-26,10.8c-6,5.9-9.1,11.5-9.1,16.6s.8,4.7,2.5,6.2c1.7,1.5,4,2.3,6.8,2.3,4.7,0,9.6-2.3,14.7-6.8,5-4.5,7.6-9,7.6-13.2s-1.7-5-5.2-5-7.3,2-11.3,5.9c-4,3.9-6,7.6-6,11s.3,1.5.8,2.1c.5.6,1.2.9,1.9.9s.7.2.7.4-.3.4-.8.4c-1.2,0-2.2-.5-3-1.6-.8-1-1.2-2.3-1.2-3.8,0-3.7,2.1-7.4,6.1-10.9,4-3.5,8.3-5.3,12.5-5.3s6.2,1.9,6.2,5.8-2.6,9.3-7.8,14c-5.2,4.7-10.4,7.1-15.4,7.1s-6-1-8-3c-2-2-3-4.7-3-8,0-6.7,3.8-12.9,11.4-18.4,7.5-5.5,16-8.3,25.2-8.3s12.8,1.6,17.5,4.6c4.3-2.7,8.5-4,12.6-4s5.8,1,7.7,2.9c1.9,1.9,2.9,4.5,2.9,7.6s-.2,2.6-.5,4.1c-.5,2-.8,2.3-1.1,2.3s-.5-.2-.5-.5,0-.2,0-.4c.6-1.6.9-3.4.9-5.3,0-2.9-.9-5.3-2.6-7.1-1.7-1.8-4.1-2.7-7-2.7s-7.9,1.3-11.9,3.8c3.4,2.8,5.2,5.8,5.2,9.1s-1.1,5.2-3.4,7.2c-2.2,1.9-5,3.1-8.5,3.6,2.3,1.4,3.5,3.5,3.5,6.1s-.6,4.6-1.9,8.2c-.8,2.4-1.2,4.3-1.2,5.6s.5,2.6,1.5,3.5c1,1,2.2,1.4,3.7,1.4s2.9-.5,4.2-1.5c.4-.3.6-.3.7-.3.3,0,.4.1.4.4,0,.5-.7.9-2.1,1.5-1.3.5-2.5.8-3.5.8ZM174.2,272.8h0c.9.8,1.4,1.8,1.4,3s-.2,2-.6,3.2c-1.7,4.9-2.6,8.3-2.6,10.2s.8,4.9,2.3,6.7c1.5,1.8,3.4,2.7,5.6,2.7s2.1-.3,3.4-.8c1.7-.7,1.9-1.1,1.9-1.3s0-.2-.2-.2-.2,0-.6.3c-1.4,1-2.8,1.5-4.4,1.5s-2.8-.5-3.8-1.5c-1-1-1.6-2.2-1.6-3.7s.4-3.3,1.2-5.7c1.2-3.6,1.9-6.4,1.9-8.2,0-2.6-1.2-4.7-3.6-6.1l-.3-.2h.3c3.6-.5,6.5-1.7,8.7-3.6,2.2-1.9,3.3-4.3,3.3-7s-1.8-6.2-5.2-9h-.1c0,0,.1-.2.1-.2,4.1-2.6,8.2-3.9,12.2-3.9s5.3.9,7.1,2.7c1.8,1.8,2.7,4.3,2.7,7.3s-.3,3.7-.9,5.4c0,.1,0,.2,0,.3,0,.2,0,.2.2.2s.4-.2.8-2.1c.3-1.4.5-2.8.5-4,0-3.1-1-5.5-2.9-7.4-1.9-1.9-4.4-2.8-7.6-2.8s-8.2,1.4-12.5,4h0s0,0,0,0c-4.7-3.1-10.6-4.6-17.5-4.6s-17.5,2.8-25,8.3c-7.5,5.5-11.3,11.6-11.3,18.2s1,5.9,2.9,7.9c1.9,1.9,4.6,2.9,7.8,2.9,5,0,10.1-2.4,15.3-7,5.1-4.6,7.7-9.3,7.7-13.8s-2-5.5-6-5.5-8.4,1.8-12.4,5.2c-4,3.5-6,7.1-6,10.7s.4,2.7,1.2,3.7c.8,1,1.7,1.5,2.8,1.5s.6,0,.6-.2-.2-.2-.5-.2c-.8,0-1.5-.3-2.1-1-.6-.6-.9-1.4-.9-2.3,0-3.5,2-7.2,6.1-11.2,4-3.9,7.9-5.9,11.4-5.9s5.4,1.8,5.4,5.3-2.6,8.8-7.7,13.4c-5.1,4.6-10.1,6.9-14.8,6.9s-5.3-.8-7-2.4c-1.7-1.6-2.6-3.7-2.6-6.4,0-5.2,3.1-10.9,9.1-16.8,7.4-7.2,16.2-10.9,26.1-10.9s12.6,1.6,16.3,4.7h.1c0,0-.1.2-.1.2-2.3,1.6-5,4.2-8.2,7.8-3.2,3.6-6.1,7.2-8.4,10.8-4.8,7.3-7.9,11.9-9.3,13.8-1.3,1.7-2.9,3.5-4.7,5.2-4.2,3.8-9,5.8-14.2,5.8s-5.4-.7-7.4-2c-2-1.3-2.9-3-2.9-5s.2-2,.7-2,.1,0,.1,0c0,0,.1.2.1.8,0,.6.1,1.1.4,1.4.3.3.7.4,1.3.4s1.2-.3,1.7-.8c.5-.5.7-1.2.7-2,0-1.5-.7-2.3-2.1-2.3s-1.8.4-2.5,1.3c-.7.9-1.1,1.9-1.1,3.1,0,2.1,1,3.9,3.1,5.4,2.1,1.4,4.7,2.2,7.9,2.2s8.3-1.2,13.2-3.6c4.2-2.1,7.4-4.4,9.7-7,2.3-2.6,4.9-6.8,7.7-12.6,4.6-9.6,9.6-16.5,14.7-20.4h0c0,0,.4.5.4.5,1.8,2.1,2.7,4.4,2.7,6.7s-.9,5.5-2.7,7.7c-1.8,2.2-4.2,3.5-7,4h0s0,0,0,0c-1.4-.5-2.8-.8-4.1-.8s-1.7.2-1.7.5.4.8,3.4.8,1,0,2.6-.2h0Z"/><path class="cls-1" d="M207.6,284.7c0,0-.2.4-.6.9l-1.5,1.9c-4.9,6.1-9.1,9.1-12.6,9.1s-3.1-.6-4.2-1.8-1.7-2.7-1.7-4.5c0-4.3,3-8,8.9-11.3,3.1-1.7,5.7-2.6,7.6-2.6s1.6.3,2.2.8c.6.5.9,1.1.9,1.9,0,1.7-1.1,3.2-3.3,4.4-2.2,1.2-5.9,2.3-11.2,3.4-1.6,2.4-2.4,4.5-2.4,6.1s1.1,3.1,3.3,3.1c3.7,0,8.3-3.7,13.8-11,.3-.4.5-.6.7-.6,0,0,.1,0,.1.2ZM204.6,278.1c0-.8-.4-1.1-1.2-1.1-1.3,0-2.9.9-5,2.6-2,1.7-4.1,4-6,6.8,3.4-.9,6.3-2.1,8.7-3.7s3.6-3.1,3.6-4.5Z"/><path class="cls-1" d="M192.9,296.7c-1.7,0-3.1-.6-4.3-1.8-1.1-1.2-1.7-2.7-1.7-4.6,0-4.3,3-8.1,9-11.4,3.1-1.7,5.7-2.6,7.7-2.6s1.6.3,2.3.8c.6.5.9,1.2.9,2,0,1.7-1.1,3.2-3.4,4.5-2.2,1.2-6,2.3-11.1,3.4-1.6,2.4-2.4,4.4-2.4,6s1,2.9,3.2,2.9c3.7,0,8.3-3.7,13.7-10.9.3-.4.6-.6.8-.6.1,0,.3,0,.3.3s0,.1-.7,1l-1.5,1.9c-4.9,6.1-9.2,9.1-12.7,9.1ZM203.5,276.6c-1.9,0-4.5.9-7.6,2.5-5.9,3.2-8.9,7-8.9,11.2s.6,3.2,1.7,4.4c1.1,1.2,2.5,1.8,4.1,1.8,3.5,0,7.7-3,12.5-9l1.5-1.9c.5-.6.6-.8.6-.9,0,0,0,0,0,0,0,0-.3,0-.6.5-5.4,7.3-10.1,11-13.8,11s-3.4-1.1-3.4-3.2.8-3.7,2.4-6.2h0s0,0,0,0c5.2-1,8.9-2.2,11.1-3.3,2.2-1.2,3.3-2.6,3.3-4.3s-.3-1.3-.9-1.8c-.6-.5-1.3-.7-2.1-.7ZM192.1,286.6l.2-.3c2-2.8,4-5,6-6.8,2.1-1.8,3.7-2.6,5-2.6s1.4.4,1.4,1.2c0,1.5-1.2,3-3.6,4.6-2.4,1.6-5.3,2.9-8.7,3.7h-.3ZM203.4,277.1c-1.2,0-2.9.9-4.9,2.6-2,1.7-3.9,3.9-5.8,6.5,3.3-.9,6.1-2.1,8.3-3.6,2.3-1.6,3.5-3.1,3.5-4.4s-.4-1-1.1-1Z"/><path class="cls-1" d="M236.1,284.7c0,.5-1.7,2.8-5.2,6.9-2.8,3.4-5,5.1-6.6,5.1s-2-.4-2.7-1.2c-.7-.8-1.1-1.8-1.1-3.1s.2-2.1.7-3c.4-.9,1.6-2.7,3.4-5.4,1.9-2.8,2.9-4.7,2.9-5.4s-.5-1.5-1.5-1.5c-3.5,0-8.8,6.4-16,19.2-1.2,0-1.9-.1-2.1-.1-.8,0-1.6,0-2.3.1l5.5-8.8c3.1-5,4.7-8.2,4.7-9.4s-.3-1.1-.9-1.1c-1.2,0-3.6,2.6-7.2,7.7-.2.3-.4.5-.5.5-.1,0-.2,0-.2-.2,0-.1,0-.2.1-.3l.7-.9c3.6-4.9,6.1-7.3,7.3-7.3s1.5.4,2.1,1.1c.6.7.9,1.6.9,2.6,0,1.5-.9,3.6-2.7,6.3,2.8-3.9,4.9-6.5,6.4-7.9,1.5-1.4,2.9-2.1,4.2-2.1s1.9.4,2.6,1.3c.7.9,1.1,1.9,1.1,3.2s-1.1,4-3.3,7.3-3.3,5.5-3.3,6.4.5,1.5,1.5,1.5c2.1,0,5.7-3.8,10.9-11.3.1-.2.2-.4.4-.4s.2,0,.2.2Z"/><path class="cls-1" d="M224.3,296.7c-1.1,0-2-.4-2.8-1.3-.7-.8-1.1-1.9-1.1-3.1s.2-2.1.7-3c.4-.9,1.6-2.7,3.4-5.4,1.9-2.8,2.9-4.6,2.9-5.4s-.5-1.3-1.4-1.3c-3.4,0-8.7,6.5-15.9,19.2h0c0,0,0,0,0,0-1.4-.1-1.9-.1-2.1-.1-.8,0-1.6,0-2.3.1h-.2s.1-.2.1-.2l5.5-8.8c3.1-5,4.7-8.1,4.7-9.3s-.2-1-.8-1c-1.2,0-3.5,2.6-7.1,7.6-.2.3-.4.5-.6.5h0c-.2,0-.3-.1-.3-.3h0s0,0,0,0c0-.1,0-.3.2-.3l.7-.9c3.7-4.9,6.1-7.3,7.4-7.3s1.6.4,2.2,1.1c.6.8.9,1.7.9,2.7s-.5,2.5-1.4,4.3c2.1-2.8,3.8-4.8,5-6,1.5-1.4,2.9-2.2,4.3-2.2s2,.4,2.7,1.3c.7.9,1.1,2,1.1,3.2s-1.1,4.1-3.3,7.3c-2.2,3.3-3.3,5.4-3.3,6.3s.4,1.3,1.3,1.3c2.1,0,5.7-3.8,10.8-11.2.1-.3.3-.4.4-.4s.3.1.3.3c0,.3-.5,1.4-5.2,7-2.9,3.4-5.1,5.1-6.7,5.1ZM225.9,276.9c1.1,0,1.6.5,1.6,1.6s-.9,2.6-2.9,5.5c-1.8,2.7-3,4.5-3.4,5.4-.4.9-.6,1.9-.6,2.9s.4,2.2,1.1,3c.7.8,1.6,1.2,2.6,1.2,1.6,0,3.8-1.7,6.6-5,4.2-5.1,5.1-6.5,5.1-6.8s0-.1-.1-.1-.1,0-.3.3c-5.2,7.6-8.8,11.3-11,11.3s-1.6-.5-1.6-1.6,1.1-3.1,3.4-6.5c2.2-3.2,3.2-5.7,3.2-7.2s-.3-2.3-1-3.1c-.7-.8-1.5-1.2-2.5-1.2s-2.6.7-4.1,2.1c-1.5,1.4-3.7,4.1-6.4,7.9h-.2c1.8-2.8,2.6-4.9,2.6-6.4s-.3-1.8-.8-2.6c-.6-.7-1.2-1.1-2-1.1-1.2,0-3.6,2.4-7.2,7.3l-.7.9c0,0,0,.1-.1.2,0,0,0,0,0,0,0,0,.1,0,.4-.4,3.6-5.2,6-7.7,7.2-7.7s1,.2,1,1.2-1.6,4.4-4.7,9.5l-5.4,8.6c.7,0,1.4-.1,2.1-.1s.9,0,2,.1c7.3-12.9,12.5-19.2,16-19.2Z"/><path class="cls-1" d="M257.1,284.6c0,.4-.7,1.3-2.1,2.7-2.1,2.1-4,3.1-5.8,3.1s-1.4-.1-2-.4c-3.1,4.4-6.1,6.6-8.8,6.6s-2.6-.6-3.6-1.8-1.5-2.6-1.5-4.2c0-3.6,2.4-7.2,7.2-10.5,3.4-2.4,6.1-3.6,8.3-3.6s3.1,1.1,3.1,3.3-1.4,6-4.3,9.8c.5.3,1,.4,1.6.4,1.1,0,2.3-.5,3.7-1.5,1.4-1,2.6-2.2,3.5-3.6.3-.3.5-.5.6-.5s.1,0,.1.1ZM251.3,279.9c0-1.9-.9-2.9-2.6-2.9s-4.8,2.1-7.9,6.2-4.7,7.6-4.7,10.4.8,2.5,2.3,2.5c2.6,0,5.3-2.1,8.4-6.3-.7-.8-1-1.5-1-2.3,0-1.2.5-2.4,1.4-3.6.9-1.2,1.8-1.8,2.7-1.8s.6.2.8.7c.4-.8.6-1.8.6-2.8Z"/><path class="cls-1" d="M238.5,296.7c-1.5,0-2.7-.6-3.7-1.8-1-1.2-1.5-2.6-1.5-4.3,0-3.7,2.4-7.2,7.2-10.6,3.4-2.4,6.2-3.6,8.4-3.6s3.2,1.1,3.2,3.4-1.4,6-4.2,9.8c.4.2.9.3,1.4.3,1,0,2.3-.5,3.7-1.5,1.4-1,2.6-2.2,3.5-3.5.4-.5.6-.5.7-.5.2,0,.3,0,.3.3,0,.3-.2.8-2.1,2.7-2.1,2.1-4.1,3.1-5.8,3.1s-1.4-.1-1.9-.4c-3.1,4.4-6.1,6.6-8.8,6.6ZM248.8,276.6c-2.1,0-4.9,1.2-8.2,3.6-4.7,3.3-7.1,6.9-7.1,10.5s.5,3,1.5,4.1c1,1.1,2.2,1.7,3.6,1.7,2.7,0,5.6-2.2,8.7-6.6h0c0,0,0,0,0,0,.6.3,1.2.4,1.9.4,1.7,0,3.6-1,5.7-3.1,1.7-1.7,2.1-2.3,2.1-2.6s0,0,0,0h0s0,0,0,0-.1,0-.5.5c-.9,1.4-2.1,2.6-3.5,3.6-1.4,1-2.7,1.5-3.8,1.5s-1.2-.1-1.7-.4h-.1c0,0,0-.2,0-.2,2.8-3.8,4.3-7.1,4.3-9.8s-1-3.2-2.9-3.2ZM238.5,296.1c-1.6,0-2.5-.9-2.5-2.6,0-2.8,1.6-6.4,4.7-10.5,3.1-4.1,5.8-6.2,8-6.2s2.7,1,2.7,3-.2,2-.6,2.8v.3c-.1,0-.2-.3-.2-.3-.1-.4-.3-.6-.7-.6-.8,0-1.7.6-2.6,1.8-.9,1.2-1.4,2.4-1.4,3.5s.3,1.5,1,2.3h0c0,0,0,.1,0,.1-3,4.2-5.9,6.4-8.5,6.4ZM248.7,277.1c-2.1,0-4.7,2.1-7.8,6.1-3.1,4.1-4.6,7.6-4.6,10.3s.7,2.3,2.2,2.3c2.5,0,5.3-2.1,8.2-6.2-.7-.8-1-1.5-1-2.4,0-1.2.5-2.4,1.4-3.7.9-1.3,1.9-1.9,2.8-1.9s.6,0,.8.5c.3-.7.4-1.6.4-2.5,0-1.9-.8-2.8-2.5-2.8Z"/><path class="cls-1" d="M277,284.6c0,.3-.7,1.2-2.2,2.7-2.1,2.2-3.9,3.2-5.4,3.2s-1.9-.6-2.6-1.7c-2.1,2.9-3.8,4.9-5.1,6.1-1.3,1.1-2.7,1.7-4,1.7s-2.2-.4-3.1-1.3c-.8-.8-1.2-1.9-1.2-3s.8-3.4,2.4-6.1l5.6-9.4c1.2.1,1.9.2,2.3.2.9,0,1.6,0,2.1-.2l-7.4,12c-1.6,2.7-2.5,4.6-2.5,5.6s.6,1.7,1.9,1.7,2.3-.5,3.6-1.6c1.2-1.1,3-3.1,5.2-6-.2-.7-.3-1.3-.3-1.9,0-2.2.7-4.4,2-6.6,1.3-2.3,2.6-3.4,3.8-3.4s.9.3.9,1c0,1.8-2,5.4-5.9,11,.5,1.1,1.3,1.6,2.3,1.6,1.8,0,4-1.6,6.6-4.8.5-.6.8-.9.9-.9s.1,0,.1.1Z"/><path class="cls-1" d="M257.6,296.7c-1.2,0-2.3-.4-3.1-1.3-.8-.9-1.3-1.9-1.3-3.1s.8-3.5,2.4-6.2l5.6-9.5h0c1.1.1,1.9.2,2.3.2.9,0,1.6,0,2.1-.2h.3c0,0-7.6,12.2-7.6,12.2-1.6,2.7-2.4,4.5-2.4,5.6s.6,1.6,1.8,1.6,2.3-.5,3.5-1.6c1.2-1.1,2.9-3.1,5.2-6-.2-.7-.3-1.3-.3-1.9,0-2.2.7-4.4,2-6.7,1.3-2.3,2.7-3.5,3.9-3.5s1,.2,1,1.1c0,1.8-1.9,5.4-5.9,11,.5,1,1.2,1.5,2.2,1.5,1.8,0,3.9-1.6,6.5-4.8.7-.8.9-.9,1-.9s.3,0,.3.3-.3.7-2.3,2.8c-2.1,2.2-3.9,3.3-5.5,3.3s-1.9-.5-2.6-1.6c-2.1,2.8-3.8,4.8-5.1,5.9-1.3,1.1-2.7,1.7-4.1,1.7ZM261.4,276.9l-5.6,9.3c-1.6,2.6-2.4,4.7-2.4,6s.4,2.1,1.2,3c.8.8,1.8,1.2,3,1.2s2.6-.6,3.9-1.7c1.3-1.1,3-3.1,5.1-6h.1c0-.1,0,0,0,0,.7,1.1,1.5,1.6,2.5,1.6,1.5,0,3.3-1.1,5.3-3.2,1.9-2,2.2-2.5,2.2-2.7s0,0,0,0h0s0,0,0,0c0,0-.2,0-.8.8-2.6,3.2-4.8,4.9-6.7,4.9s-1.9-.6-2.4-1.7h0c0,0,0-.1,0-.1,3.9-5.5,5.9-9.2,5.9-10.9s-.2-.9-.8-.9c-1.2,0-2.4,1.1-3.7,3.4-1.3,2.2-2,4.5-2,6.6s.1,1.2.3,1.8h0c0,0,0,.1,0,.1-2.3,2.9-4,5-5.3,6.1-1.2,1.1-2.5,1.6-3.6,1.6s-2-.6-2-1.8.8-2.9,2.5-5.7l7.3-11.8c-.5,0-1.1.1-1.9.1s-1.2,0-2.3-.2Z"/><path class="cls-1" d="M302,284.7c0,.5-1.7,2.8-5.2,6.9-2.8,3.4-5,5.1-6.6,5.1s-2-.4-2.7-1.2c-.7-.8-1-1.8-1-3.1s.4-2.7,1.1-4.2c-2.4,3.3-4.2,5.6-5.4,6.7s-2.5,1.7-3.7,1.7-2.3-.5-3.2-1.6c-.9-1.1-1.3-2.4-1.3-4.1,0-4.5,3.2-8.6,9.6-12.1,2.8-1.6,5.1-2.3,6.8-2.3s2.2.7,2.2,2.1,0,.9-.3,1.6l1.8-3.4c.7.2,1.3.2,1.9.2s1.5,0,2.5-.2l-6.3,10.4c-2.2,3.6-3.3,6-3.3,7.2s.5,1.7,1.4,1.7,2.5-1.1,4.6-3.3c2.1-2.2,4.2-4.8,6.4-8,.1-.2.3-.4.4-.4s.2,0,.2.2ZM292.2,278.8c0-1.2-.5-1.7-1.6-1.7-2.2,0-5,2.1-8.6,6.4-3.5,4.3-5.3,7.7-5.3,10.3s.7,2.3,2.1,2.3,4.5-2.7,8.5-8.1c3.3-4.5,4.9-7.5,4.9-9.2Z"/><path class="cls-1" d="M290.2,296.7c-1.1,0-2-.4-2.8-1.3-.7-.8-1.1-1.9-1.1-3.1s.2-2,.7-3.2c-2,2.8-3.6,4.8-4.8,5.8-1.3,1.2-2.5,1.8-3.7,1.8s-2.4-.6-3.2-1.7c-.9-1.1-1.3-2.5-1.3-4.1,0-4.6,3.3-8.7,9.7-12.2,2.8-1.6,5.1-2.4,6.9-2.4s2.3.8,2.3,2.2,0,.5,0,.7l1.4-2.7h0c.7.2,1.3.3,1.9.3s1.5,0,2.5-.2h.2s-6.4,10.6-6.4,10.6c-2.2,3.6-3.3,6-3.3,7.2s.4,1.6,1.3,1.6,2.4-1.1,4.5-3.2c2.1-2.2,4.2-4.9,6.4-8,.2-.3.3-.4.5-.4s.3.1.3.3c0,.3-.5,1.4-5.2,7-2.8,3.4-5,5.1-6.7,5.1ZM287.5,288.1h.2c-.7,1.6-1.1,3-1.1,4.2s.3,2.2,1,3c.7.8,1.5,1.2,2.6,1.2,1.6,0,3.8-1.7,6.5-5,4.3-5.1,5.2-6.5,5.2-6.8s0-.1-.1-.1-.1,0-.3.3c-2.2,3.2-4.3,5.9-6.4,8-2.1,2.2-3.6,3.3-4.6,3.3s-1.5-.6-1.5-1.8,1.1-3.6,3.3-7.3l6.2-10.2c-.9.1-1.7.2-2.3.2s-1.1,0-1.8-.2l-2.3,4.3.3-1.1c.2-.6.3-1.2.3-1.6,0-1.4-.7-2-2.1-2s-4,.8-6.8,2.3c-6.3,3.5-9.6,7.5-9.6,12s.4,2.9,1.3,4c.8,1,1.9,1.6,3.1,1.6s2.4-.6,3.6-1.7c1.2-1.1,3.1-3.4,5.4-6.7ZM278.8,296.2c-1.4,0-2.2-.8-2.2-2.4,0-2.6,1.8-6.1,5.3-10.4,3.5-4.3,6.5-6.4,8.7-6.4s1.7.6,1.7,1.9-1.6,4.7-5,9.2c-4.1,5.5-6.9,8.2-8.6,8.2ZM290.6,277.2c-2.1,0-5,2.1-8.5,6.4-3.5,4.2-5.3,7.7-5.3,10.3s.6,2.2,1.9,2.2,4.4-2.7,8.4-8.1c3.3-4.4,4.9-7.5,4.9-9.1s-.5-1.6-1.5-1.6Z"/><path class="cls-1" d="M315.1,276.5l-.3.5h-4.7l-7.9,13.5c-1,1.6-1.5,2.9-1.5,3.9s.6,1.6,1.7,1.6c2.2,0,5.8-3.8,10.9-11.3.2-.2.3-.4.4-.4s.2,0,.2.2c0,0-.1.3-.4.6l-1.5,2.1c-4.5,6.2-7.8,9.3-10.1,9.3s-2-.4-2.8-1.2c-.7-.8-1.1-1.8-1.1-3s.6-3.2,1.9-5.3l6-10h-3.6l.4-.5h3.6l4.2-6.9c.7.2,1.4.3,2,.3s1.3,0,2.1-.3l-4.1,6.9h4.7Z"/><path class="cls-1" d="M302.1,296.7c-1.1,0-2.1-.4-2.9-1.2-.8-.8-1.1-1.9-1.1-3.1s.6-3.2,1.9-5.4l5.9-9.8h-3.6l.5-.8h3.5l4.2-6.9h0c.7.2,1.4.3,2,.3s1.3,0,2-.3h.3c0,0-4.1,6.9-4.1,6.9h4.6l-.4.8h-4.7l-7.9,13.5c-1,1.6-1.4,2.9-1.4,3.8s.5,1.5,1.6,1.5c2.1,0,5.7-3.8,10.8-11.2.2-.3.4-.4.5-.4s.3.1.3.3h0c0,0,0,.2-.4.6l-1.5,2.1c-4.5,6.3-7.8,9.3-10.2,9.3ZM302.6,276.9h3.6v.2c-.1,0-6.1,10-6.1,10-1.2,2.1-1.9,3.9-1.9,5.3s.4,2.2,1.1,2.9c.7.8,1.6,1.2,2.7,1.2,2.2,0,5.6-3.1,10-9.2l1.5-2.1c.2-.3.3-.5.3-.5,0,0,0,0,0,0s-.1,0-.3.3c-5.2,7.6-8.8,11.3-11,11.3s-1.8-.6-1.8-1.7.5-2.3,1.5-4l8-13.6h4.6l.2-.3h-4.7v-.2c.1,0,4-6.7,4-6.7-.6.1-1.2.2-1.8.2s-1.3,0-2-.3l-4.1,6.9h-3.6l-.2.3Z"/><path class="cls-1" d="M326.2,284.7c0,0-.1.3-.4.6l-1.5,2.1c-4.5,6.2-7.9,9.3-10.2,9.3s-2-.4-2.8-1.2c-.7-.8-1.1-1.8-1.1-3s.8-3.5,2.5-6.2l5.5-9.4c.7.2,1.3.2,1.7.2.6,0,1.5,0,2.7-.2l-8.1,13.2c-1.2,1.9-1.7,3.4-1.7,4.4s.6,1.6,1.7,1.6c2.1,0,5.8-3.8,11.1-11.3.1-.2.2-.4.4-.4s.2,0,.2.2ZM325.7,270c0,.8-.3,1.6-1,2.3-.7.7-1.5,1.1-2.3,1.1s-1.6-.5-1.6-1.6.4-1.5,1.1-2.3c.7-.7,1.5-1.1,2.3-1.1s1.5.5,1.5,1.5Z"/><path class="cls-1" d="M314.1,296.7c-1.1,0-2.1-.4-2.9-1.2-.8-.8-1.2-1.8-1.2-3s.8-3.5,2.5-6.3l5.6-9.5h0c.7.2,1.3.3,1.7.3.6,0,1.5,0,2.7-.2h.2s-8.2,13.4-8.2,13.4c-1.1,1.9-1.7,3.4-1.7,4.4s.5,1.5,1.6,1.5c2.1,0,5.8-3.8,11-11.2.1-.3.3-.4.4-.4s.3.1.3.3h0c0,0,0,.2-.4.6l-1.5,2.1c-4.5,6.3-7.9,9.3-10.3,9.3ZM318.2,276.9l-5.5,9.3c-1.6,2.8-2.4,4.8-2.4,6.2s.4,2.1,1.1,2.9c.7.8,1.6,1.2,2.7,1.2,2.3,0,5.7-3.1,10.1-9.2l1.5-2.1c.2-.3.3-.5.3-.5,0,0,0,0,0,0s-.1,0-.3.3c-5.4,7.6-9.1,11.3-11.2,11.3s-1.8-.6-1.8-1.7.6-2.6,1.8-4.5l7.9-13c-1,.1-1.9.2-2.5.2s-1,0-1.7-.2ZM322.3,273.5c-1.1,0-1.7-.6-1.7-1.7s.4-1.6,1.1-2.3c.8-.7,1.6-1.1,2.4-1.1s1.6.6,1.6,1.6-.4,1.7-1.1,2.4c-.7.7-1.5,1.1-2.4,1.1ZM324.2,268.6c-.8,0-1.5.4-2.2,1.1-.7.7-1.1,1.4-1.1,2.2s.5,1.5,1.5,1.5,1.5-.4,2.2-1c.7-.7,1-1.5,1-2.2s-.5-1.4-1.4-1.4Z"/><path class="cls-1" d="M347.3,284.6c0,.4-.7,1.3-2.1,2.7-2.1,2.1-4,3.1-5.8,3.1s-1.4-.1-2-.4c-3.1,4.4-6.1,6.6-8.8,6.6s-2.6-.6-3.6-1.8-1.5-2.6-1.5-4.2c0-3.6,2.4-7.2,7.2-10.5,3.4-2.4,6.1-3.6,8.3-3.6s3.1,1.1,3.1,3.3-1.4,6-4.3,9.8c.5.3,1,.4,1.6.4,1.1,0,2.3-.5,3.7-1.5,1.4-1,2.6-2.2,3.5-3.6.3-.3.5-.5.6-.5s.1,0,.1.1ZM341.5,279.9c0-1.9-.9-2.9-2.6-2.9s-4.8,2.1-7.9,6.2-4.7,7.6-4.7,10.4.8,2.5,2.3,2.5c2.6,0,5.3-2.1,8.4-6.3-.7-.8-1-1.5-1-2.3,0-1.2.5-2.4,1.4-3.6.9-1.2,1.8-1.8,2.7-1.8s.6.2.8.7c.4-.8.6-1.8.6-2.8Z"/><path class="cls-1" d="M328.7,296.7c-1.5,0-2.7-.6-3.7-1.8-1-1.2-1.5-2.6-1.5-4.3,0-3.7,2.4-7.2,7.2-10.6,3.4-2.4,6.2-3.6,8.4-3.6s3.2,1.1,3.2,3.4-1.4,6-4.2,9.8c.4.2.9.3,1.4.3,1,0,2.3-.5,3.7-1.5,1.4-1,2.6-2.2,3.5-3.5.4-.5.6-.5.7-.5.2,0,.3,0,.3.3,0,.3-.2.8-2.1,2.7-2.1,2.1-4.1,3.1-5.8,3.1s-1.4-.1-1.9-.4c-3.1,4.4-6.1,6.6-8.8,6.6ZM339,276.6c-2.1,0-4.9,1.2-8.2,3.6-4.7,3.3-7.1,6.9-7.1,10.5s.5,3,1.5,4.1c1,1.1,2.2,1.7,3.6,1.7,2.7,0,5.6-2.2,8.7-6.6h0c0,0,0,0,0,0,.6.3,1.2.4,1.9.4,1.7,0,3.6-1,5.7-3.1,1.7-1.7,2.1-2.3,2.1-2.6s0,0,0,0h0s0,0,0,0-.1,0-.5.5c-.9,1.4-2.1,2.6-3.5,3.6-1.4,1-2.7,1.5-3.8,1.5s-1.2-.1-1.7-.4h-.1c0,0,0-.2,0-.2,2.8-3.8,4.3-7.1,4.3-9.8s-1-3.2-2.9-3.2ZM328.7,296.1c-1.6,0-2.5-.9-2.5-2.6,0-2.8,1.6-6.4,4.7-10.5,3.1-4.1,5.8-6.2,8-6.2s2.7,1,2.7,3-.2,2-.6,2.8v.3c-.1,0-.2-.3-.2-.3-.1-.4-.3-.6-.7-.6-.8,0-1.7.6-2.6,1.8-.9,1.2-1.4,2.4-1.4,3.5s.3,1.5,1,2.3h0c0,0,0,.1,0,.1-3,4.2-5.9,6.4-8.5,6.4ZM338.9,277.1c-2.1,0-4.7,2.1-7.8,6.1-3.1,4.1-4.6,7.6-4.6,10.3s.7,2.3,2.2,2.3c2.5,0,5.3-2.1,8.2-6.2-.7-.8-1-1.5-1-2.4,0-1.2.5-2.4,1.4-3.7.9-1.3,1.9-1.9,2.8-1.9s.6,0,.8.5c.3-.7.4-1.6.4-2.5,0-1.9-.8-2.8-2.5-2.8Z"/><path class="cls-1" d="M375.8,284.7c0,.5-1.7,2.8-5.2,6.9-2.8,3.4-5,5.1-6.6,5.1s-2-.4-2.7-1.2c-.7-.8-1.1-1.8-1.1-3.1s.2-2.1.7-3c.4-.9,1.6-2.7,3.4-5.4,1.9-2.8,2.9-4.7,2.9-5.4s-.5-1.5-1.5-1.5c-3.5,0-8.8,6.4-16,19.2-1.2,0-1.9-.1-2.1-.1-.8,0-1.6,0-2.3.1l5.5-8.8c3.1-5,4.7-8.2,4.7-9.4s-.3-1.1-.9-1.1c-1.2,0-3.6,2.6-7.2,7.7-.2.3-.4.5-.5.5-.1,0-.2,0-.2-.2,0-.1,0-.2.1-.3l.7-.9c3.6-4.9,6.1-7.3,7.3-7.3s1.5.4,2.1,1.1c.6.7.9,1.6.9,2.6,0,1.5-.9,3.6-2.7,6.3,2.8-3.9,4.9-6.5,6.4-7.9,1.5-1.4,2.9-2.1,4.2-2.1s1.9.4,2.6,1.3c.7.9,1.1,1.9,1.1,3.2s-1.1,4-3.3,7.3-3.3,5.5-3.3,6.4.5,1.5,1.5,1.5c2.1,0,5.7-3.8,10.9-11.3.1-.2.2-.4.4-.4s.2,0,.2.2Z"/><path class="cls-1" d="M364,296.7c-1.1,0-2-.4-2.8-1.3-.7-.8-1.1-1.9-1.1-3.1s.2-2.1.7-3c.4-.9,1.6-2.7,3.4-5.4,1.9-2.8,2.9-4.6,2.9-5.4s-.5-1.3-1.4-1.3c-3.4,0-8.7,6.5-15.9,19.2h0c0,0,0,0,0,0-1.4-.1-1.9-.1-2.1-.1-.8,0-1.6,0-2.3.1h-.2s.1-.2.1-.2l5.5-8.8c3.1-5,4.7-8.1,4.7-9.3s-.2-1-.8-1c-1.2,0-3.5,2.6-7.1,7.6-.2.3-.4.5-.6.5h0c-.2,0-.3-.1-.3-.3h0s0,0,0,0c0-.1,0-.3.2-.3l.7-.9c3.7-4.9,6.1-7.3,7.4-7.3s1.6.4,2.2,1.1c.6.8.9,1.7.9,2.7s-.5,2.5-1.4,4.3c2.1-2.8,3.8-4.8,5-6,1.5-1.4,2.9-2.2,4.3-2.2s2,.4,2.7,1.3c.7.9,1.1,2,1.1,3.2s-1.1,4.1-3.3,7.3c-2.2,3.3-3.3,5.4-3.3,6.3s.4,1.3,1.3,1.3c2.1,0,5.7-3.8,10.8-11.2.1-.3.3-.4.4-.4s.3.1.3.3c0,.3-.5,1.4-5.2,7-2.9,3.4-5.1,5.1-6.7,5.1ZM365.7,276.9c1.1,0,1.6.5,1.6,1.6s-.9,2.6-2.9,5.5c-1.8,2.7-3,4.5-3.4,5.4-.4.9-.6,1.9-.6,2.9s.4,2.2,1.1,3c.7.8,1.6,1.2,2.6,1.2,1.6,0,3.8-1.7,6.6-5,4.2-5.1,5.1-6.5,5.1-6.8s0-.1-.1-.1-.1,0-.3.3c-5.2,7.6-8.8,11.3-11,11.3s-1.6-.5-1.6-1.6,1.1-3.1,3.4-6.5,3.2-5.7,3.2-7.2-.3-2.3-1-3.1c-.7-.8-1.5-1.2-2.5-1.2s-2.6.7-4.1,2.1c-1.5,1.4-3.7,4.1-6.4,7.9h-.2c1.8-2.8,2.6-4.9,2.6-6.4s-.3-1.8-.8-2.6c-.6-.7-1.2-1.1-2-1.1-1.2,0-3.6,2.4-7.2,7.3l-.7.9c0,0,0,.1-.1.2,0,0,0,0,0,0,0,0,.1,0,.4-.4,3.6-5.2,6-7.7,7.2-7.7s1,.2,1,1.2-1.6,4.4-4.7,9.5l-5.4,8.6c.7,0,1.4-.1,2.1-.1s.9,0,2,.1c7.3-12.9,12.5-19.2,16-19.2Z"/></svg>